<?xml version="1.0" encoding="UTF-8"?>
<svg version="1.1" xmlns="http://www.w3.org/2000/svg" width="500" height="500">
<path d="M0 0 C1.68802734 0.02513672 1.68802734 0.02513672 3.41015625 0.05078125 C33.33375806 1.17091608 61.6058524 15.59327459 83 36 C83.804375 37.15435547 83.804375 37.15435547 84.625 38.33203125 C85.86252851 40.18478812 85.86252851 40.18478812 87.98046875 40.42578125 C88.70878906 40.38839844 89.43710937 40.35101563 90.1875 40.3125 C90.90292969 40.28800781 91.61835938 40.26351562 92.35546875 40.23828125 C94.47459688 40.04734061 96.58711033 39.78357586 98.6953125 39.49609375 C121.06913402 36.64424688 143.42941451 40.02186033 164 49 C164.65081543 49.28391602 165.30163086 49.56783203 165.97216797 49.86035156 C180.85690407 56.51470417 195.32371419 66.51130613 206 79 C206 79.66 206 80.32 206 81 C206.55945313 81.1959375 207.11890625 81.391875 207.6953125 81.59375 C210.94588402 83.57714957 212.76025456 86.41548924 214.875 89.5 C215.3169873 90.13655518 215.75897461 90.77311035 216.21435547 91.42895508 C217.48822201 93.27813878 218.74596744 95.13733103 220 97 C220.56203125 97.81855469 221.1240625 98.63710937 221.703125 99.48046875 C240.14752124 128.10982005 242.31295769 163.32977804 236 196 C235.55060425 197.43819227 235.09531605 198.87456307 234.6328125 200.30859375 C233.59144792 203.99209087 233.59144792 203.99209087 235.640625 206.7734375 C236.50171875 207.63195312 237.3628125 208.49046875 238.25 209.375 C247.50247353 219.30284849 254.13605336 232.02693027 258 245 C258.42262198 246.34132086 258.84584918 247.68245111 259.26953125 249.0234375 C259.72340204 250.49416125 260.1752235 251.96551898 260.625 253.4375 C260.93497925 254.43922241 260.93497925 254.43922241 261.2512207 255.46118164 C270.68427779 287.43537067 264.33617277 321.7135308 248.77001953 350.5847168 C245.41053998 356.56938783 241.61098845 361.90567942 237 367 C236.41605469 367.68964844 235.83210938 368.37929688 235.23046875 369.08984375 C230.080634 375.14642142 224.63320984 381.53666005 218 386 C217.34 386 216.68 386 216 386 C216 386.66 216 387.32 216 388 C210.44494247 392.44404602 204.29848887 395.72946992 198 399 C197.43869385 399.31372559 196.8773877 399.62745117 196.29907227 399.95068359 C191.36763026 402.60386454 186.40054075 404.09489719 181.015625 405.58398438 C171.42537987 408.03928049 171.42537987 408.03928049 163.60546875 413.625 C162.41389537 416.7239329 161.72508051 419.76130707 161 423 C159.91506473 425.72040332 158.63397362 428.32507467 157.3125 430.9375 C156.97259033 431.6171582 156.63268066 432.29681641 156.2824707 432.99707031 C152.66696331 440.00237712 148.11470827 446.02969942 143 452 C142.5575293 452.52078125 142.11505859 453.0415625 141.65917969 453.578125 C133.88328295 462.63785761 125.22511792 470.73972372 115 477 C114.18660156 477.50917969 113.37320312 478.01835937 112.53515625 478.54296875 C95.74008692 488.75527265 78.95525535 495.14552361 59.203125 495.16796875 C58.17370789 495.17129715 57.14429077 495.17462555 56.0836792 495.17805481 C53.91191044 495.18310118 51.74013399 495.18546385 49.56835938 495.18530273 C46.27460704 495.18748371 42.98119295 495.20564897 39.6875 495.22460938 C37.56770947 495.22754501 35.44791736 495.22952867 33.328125 495.23046875 C32.35691711 495.23765427 31.38570923 495.24483978 30.3850708 495.25224304 C6.33165542 495.17331204 -17.91370355 483.43571852 -36 468 C-36 467.34 -36 466.68 -36 466 C-36.598125 465.74605469 -37.19625 465.49210937 -37.8125 465.23046875 C-40.23459239 463.86804178 -41.30539461 462.48812619 -43 460.3125 C-45.22925751 458.03583785 -46.29949408 457.03137802 -49.53442383 456.88647461 C-50.47825928 457.01546143 -51.42209473 457.14444824 -52.39453125 457.27734375 C-69.5183049 459.22281417 -87.21909634 459.12351265 -104 455 C-105.1446875 454.74476563 -106.289375 454.48953125 -107.46875 454.2265625 C-125.84025306 449.63368674 -145.74819185 439.61603163 -158.640625 425.4609375 C-160.15256686 423.75952712 -160.15256686 423.75952712 -162.875 421.75 C-182.11920884 405.97689514 -195.79308841 375.73120987 -198.55859375 351.4453125 C-199.14156344 345.23761436 -199.19188703 339.04383978 -199.1875 332.8125 C-199.1862915 331.02827637 -199.1862915 331.02827637 -199.18505859 329.20800781 C-199.1174182 319.48635945 -198.87335883 309.81387222 -195.8671875 300.484375 C-194.9282155 296.71156859 -194.86213338 294.69806652 -196 291 C-197.86679382 288.2495329 -197.86679382 288.2495329 -200.25 285.6875 C-204.25310743 280.98984712 -207.24450569 276.49360379 -210 271 C-210.54269531 270.0203125 -211.08539063 269.040625 -211.64453125 268.03125 C-227.91656815 237.68514197 -229.40122749 202.90830784 -219.76953125 170.31640625 C-217.5718644 163.38835768 -214.53693247 157.04117124 -210.97167969 150.72265625 C-210.06233193 149.11050606 -209.18986856 147.4777065 -208.3203125 145.84375 C-194.43900801 120.60501456 -170.99542059 100.99140854 -144 91 C-142.55943773 90.66384644 -141.11356902 90.34989881 -139.6640625 90.0546875 C-131.01166393 88.40351611 -131.01166393 88.40351611 -124.609375 82.80859375 C-123.0231664 79.62779278 -121.84313281 76.31768734 -120.70507812 72.95458984 C-117.0816292 62.90980725 -110.57789556 54.26796484 -104 46 C-103.29230469 45.0615625 -102.58460937 44.123125 -101.85546875 43.15625 C-101.24316406 42.4446875 -100.63085938 41.733125 -100 41 C-99.34 41 -98.68 41 -98 41 C-97.66162109 40.16662109 -97.66162109 40.16662109 -97.31640625 39.31640625 C-86.43785529 20.17403022 -57.50387847 9.14878869 -37.56835938 3.45751953 C-25.30451723 0.09126903 -12.67068393 -0.33896097 0 0 Z M-74 64 C-76.82068232 67.22646468 -79.4367195 70.56703504 -82 74 C-82.495 74.6290625 -82.99 75.258125 -83.5 75.90625 C-86.11049046 79.32474941 -87.7862993 82.5871808 -89.18359375 86.69921875 C-90.18596671 89.524088 -91.37514564 92.24796876 -92.5625 95 C-97.78893137 107.55599127 -98.15813472 119.96640694 -98.11352539 133.46972656 C-98.11367142 134.65166092 -98.11381744 135.83359528 -98.1139679 137.05134583 C-98.11327747 140.91445829 -98.10552623 144.77752107 -98.09765625 148.640625 C-98.0952291 151.33632378 -98.09431727 154.03202252 -98.09336853 156.72772217 C-98.09027691 163.07033067 -98.08209315 169.41292166 -98.07201904 175.75552249 C-98.06079004 182.98419767 -98.05533045 190.21287375 -98.05032361 197.4415555 C-98.03990841 212.29437975 -98.02235154 227.14718871 -98 242 C-97.26213257 242.40085815 -96.52426514 242.80171631 -95.76403809 243.21472168 C-94.78680786 243.74650024 -93.80957764 244.27827881 -92.80273438 244.82617188 C-91.83799194 245.35078003 -90.87324951 245.87538818 -89.87927246 246.41589355 C-84.92862315 249.13962171 -80.06010737 252.00192705 -75.18359375 254.85546875 C-70.88766071 257.35844142 -66.56534319 259.79855258 -62.19726562 262.17382812 C-61.2200354 262.70560669 -60.24280518 263.23738525 -59.23596191 263.78527832 C-58.49809448 264.18613647 -57.76022705 264.58699463 -57 265 C-56.99761165 264.27462256 -56.99522329 263.54924513 -56.99276257 262.80188656 C-56.93359192 245.14088661 -56.85802863 227.48003272 -56.76428509 209.8191824 C-56.71934524 201.27847465 -56.67992641 192.73780844 -56.65356445 184.19702148 C-56.63056969 176.75170201 -56.59715517 169.30651415 -56.55129844 161.8612991 C-56.52738609 157.92015677 -56.50864432 153.97914463 -56.50238609 150.03793144 C-56.49632618 146.32538838 -56.47629397 142.61317837 -56.44572449 138.90075874 C-56.43279121 136.89469404 -56.43451172 134.88855147 -56.4367218 132.88244629 C-56.3706656 126.5369925 -56.26451453 121.53047059 -53 116 C-50.42578125 113.8828125 -50.42578125 113.8828125 -47.3125 112.125 C-46.7450708 111.79749756 -46.1776416 111.46999512 -45.59301758 111.13256836 C-43.73899748 110.06893442 -41.87044927 109.03442235 -40 108 C-38.71523406 107.2711361 -37.43138931 106.54064618 -36.1484375 105.80859375 C-31.42905883 103.12611672 -26.68355306 100.4911453 -21.93847656 97.85449219 C-15.19461559 94.10291917 -8.48050785 90.34581987 -1.9375 86.25 C3.98872216 82.55620849 10.03927067 79.11128366 16.125 75.6875 C17.10839355 75.13360596 18.09178711 74.57971191 19.10498047 74.0090332 C21.09320128 72.88937835 23.08148243 71.76983063 25.06982422 70.65039062 C29.6153017 68.09019834 34.15739159 65.52480542 38.6875 62.9375 C39.4707666 62.49688232 40.2540332 62.05626465 41.06103516 61.60229492 C44.87442218 59.41469516 48.06766395 57.35013591 51 54 C11.90689788 24.36490646 -39.72735307 29.61349046 -74 64 Z M62 88 C61.08935791 88.50829346 60.17871582 89.01658691 59.24047852 89.5402832 C56.44783517 91.10294292 53.66051193 92.67466587 50.875 94.25 C49.87146484 94.8171875 48.86792969 95.384375 47.83398438 95.96875 C41.34760342 99.64450385 34.90528706 103.38620349 28.49365234 107.19042969 C22.54200535 110.70968901 16.52564852 114.10934278 10.5 117.5 C-2.66857515 124.8114088 -2.66857515 124.8114088 -15.54272461 132.62133789 C-17.63568655 133.79560079 -19.57264153 134.62023014 -21.80297852 135.47045898 C-26.15323258 137.30926269 -30.08165165 139.17503499 -33 143 C-35.48640935 150.48832247 -34.40276637 158.8191801 -33.9375 166.5625 C-33.86219068 168.73740067 -33.79376125 170.91255113 -33.73242188 173.08789062 C-33.56776424 178.39740835 -33.317488 183.69754248 -33 189 C-28.93806783 187.69000331 -25.4687567 186.27137591 -21.8125 184.0625 C-20.76191406 183.43601562 -19.71132812 182.80953125 -18.62890625 182.1640625 C-18.05027832 181.81762695 -17.47165039 181.47119141 -16.87548828 181.11425781 C-13.35327873 179.02165635 -9.79879463 176.98456846 -6.25 174.9375 C0.20539404 171.20653878 6.64807124 167.45440104 13.08398438 163.68994141 C22.0707018 158.43449322 31.07270995 153.21871033 40.171875 148.16015625 C47.53867194 144.03523716 54.79380565 139.71098928 62.0703125 135.4296875 C65.09765625 133.65234375 65.09765625 133.65234375 68.125 131.875 C69.13175781 131.28074219 70.13851562 130.68648437 71.17578125 130.07421875 C91.59471924 118.10813995 91.59471924 118.10813995 99 120 C108.13372601 123.62212356 116.6950302 128.80223442 125 134 C132.2913163 138.46278843 139.70770631 142.68008342 147.16796875 146.8515625 C153.08478886 150.16405935 158.94909734 153.54988707 164.75 157.0625 C171.54071264 161.15772875 178.39211855 165.14257861 185.2644043 169.09912109 C190.32055152 172.01343178 195.33334325 174.98477479 200.28515625 178.07421875 C201.96852119 179.15835193 201.96852119 179.15835193 204 179 C207.32808298 165.4712074 204.99154344 151.0833924 201 138 C200.80696289 137.33403809 200.61392578 136.66807617 200.41503906 135.98193359 C194.33368232 115.51602121 179.87816167 98.36396793 162 87 C161.26910156 86.48953125 160.53820312 85.9790625 159.78515625 85.453125 C146.63259052 76.72971388 129.39010084 72.58532482 113.75 72.6875 C112.83323486 72.69313965 111.91646973 72.6987793 110.97192383 72.70458984 C93.10613649 73.02146481 77.37695049 79.35103824 62 88 Z M-165.75 146.3125 C-174.61861748 155.57094682 -180.72238961 166.42141987 -186 178 C-186.35964844 178.77472656 -186.71929687 179.54945313 -187.08984375 180.34765625 C-194.38052693 201.59389608 -192.49520173 227.81621054 -183 248 C-182.50757813 249.06476563 -182.01515625 250.12953125 -181.5078125 251.2265625 C-177.16161048 259.93976177 -171.522212 266.87195118 -165 274 C-163.96166016 275.16208984 -163.96166016 275.16208984 -162.90234375 276.34765625 C-157.90450703 281.67389291 -152.27766573 285.32402112 -146 289 C-145.32533691 289.39558105 -144.65067383 289.79116211 -143.95556641 290.19873047 C-139.15177929 293.00949074 -134.33049742 295.78917343 -129.50390625 298.56054688 C-125.49701068 300.864043 -121.49884549 303.18256732 -117.5 305.5 C-115.9232142 306.41282453 -114.34639118 307.32558478 -112.76953125 308.23828125 C-109.53713446 310.10959884 -106.3054476 311.98213524 -103.07421875 313.85546875 C-96.01910882 317.94462451 -88.96207337 322.02894281 -81.875 326.0625 C-77.40474017 328.60871817 -72.96087426 331.19385075 -68.53295898 333.81298828 C-65.67257041 335.50311782 -62.80524719 337.18128177 -59.9375 338.85888672 C-58.17973012 339.89414585 -56.43294254 340.94799585 -54.6875 342.00390625 C-53.73875 342.55949219 -52.79 343.11507812 -51.8125 343.6875 C-51.01457031 344.16574219 -50.21664062 344.64398438 -49.39453125 345.13671875 C-46.03324374 346.34853692 -44.4506871 346.02708687 -41 345 C-37.58365512 343.33857754 -34.32968993 341.43545651 -31.0625 339.5 C-30.14186768 338.96407227 -29.22123535 338.42814453 -28.27270508 337.87597656 C-25.50825951 336.26200313 -22.75260325 334.63407553 -20 333 C-19.1946582 332.52240234 -18.38931641 332.04480469 -17.55957031 331.55273438 C-13.35997547 329.05645908 -9.17391162 326.53896928 -5 324 C-6.33493228 321.33013544 -7.72487671 320.936487 -10.375 319.5625 C-15.65010726 316.75456177 -20.8338956 313.81615911 -26 310.8125 C-26.8161377 310.33868896 -27.63227539 309.86487793 -28.47314453 309.37670898 C-30.98274377 307.91891631 -33.49149816 306.45968008 -36 305 C-39.0823642 303.20665946 -42.16552716 301.41471157 -45.25 299.625 C-46.01989258 299.17825928 -46.78978516 298.73151855 -47.58300781 298.27124023 C-53.94446818 294.58989983 -60.34462013 290.97923605 -66.75 287.375 C-73.84879779 283.37911193 -80.89590142 279.32055679 -87.86132812 275.09667969 C-91.79264856 272.71465889 -95.75590091 270.40011973 -99.75 268.125 C-100.87664062 267.48046875 -102.00328125 266.8359375 -103.1640625 266.171875 C-106.08219079 264.51018479 -109.01961938 262.8858711 -111.9609375 261.265625 C-113.68244039 260.30234907 -115.40379559 259.33880915 -117.125 258.375 C-117.94323242 257.93172363 -118.76146484 257.48844727 -119.60449219 257.03173828 C-124.86604913 254.06292069 -128.69496019 251.18095791 -130.58434963 245.12791824 C-131.0541969 242.72253947 -131.13996345 240.49062219 -131.15821838 238.03924561 C-131.1680072 237.04087677 -131.17779602 236.04250793 -131.18788147 235.0138855 C-131.19651466 233.38037643 -131.19651466 233.38037643 -131.20532227 231.71386719 C-131.21522186 230.56236176 -131.22512146 229.41085632 -131.23532104 228.22445679 C-131.26692869 224.41528383 -131.29169071 220.6060984 -131.31640625 216.796875 C-131.3369764 214.15699945 -131.35797289 211.5171272 -131.37937927 208.8772583 C-131.42926006 202.63712304 -131.47421596 196.39696241 -131.51740164 190.15677762 C-131.56681349 183.05159047 -131.62171696 175.94644908 -131.67708123 168.84130621 C-131.79083041 154.22758081 -131.8976848 139.61380987 -132 125 C-143.5612709 125 -157.94040963 138.93602383 -165.75 146.3125 Z M78.10546875 153.52734375 C77.15615479 154.0685083 76.20684082 154.60967285 75.22875977 155.16723633 C74.22514404 155.75142334 73.22152832 156.33561035 72.1875 156.9375 C71.16390381 157.52490967 70.14030762 158.11231934 69.08569336 158.7175293 C60.99578954 163.37581471 52.9645688 168.13066647 45 173 C47.59397018 175.95424382 50.58230781 177.59769963 54 179.5 C55.27380626 180.21548971 56.54722353 180.93167227 57.8203125 181.6484375 C58.8397998 182.22029785 58.8397998 182.22029785 59.87988281 182.80371094 C63.56194539 184.88133722 67.21782643 187.00396247 70.875 189.125 C71.66390625 189.58197266 72.4528125 190.03894531 73.265625 190.50976562 C80.88480462 194.92624592 88.48991533 199.36680496 96.09521484 203.80712891 C102.22306713 207.38374584 108.3571718 210.94917135 114.5 214.5 C119.61996729 217.45956943 124.73552349 220.4264512 129.84375 223.40625 C130.85469727 223.99591553 131.86564453 224.58558105 132.90722656 225.19311523 C134.95738434 226.39087476 137.00623028 227.59088275 139.05371094 228.79321289 C143.87439692 231.61954824 148.70723483 234.40686873 153.609375 237.08984375 C154.47949219 237.57259766 155.34960938 238.05535156 156.24609375 238.55273438 C157.86023815 239.44542422 159.48220757 240.32417821 161.11328125 241.18554688 C161.83386719 241.58708984 162.55445313 241.98863281 163.296875 242.40234375 C163.91916992 242.73741943 164.54146484 243.07249512 165.18261719 243.41772461 C168.71607158 246.49407038 170.70232749 249.97324822 171.37784195 254.57259846 C171.5314485 257.68827497 171.56008311 260.78262122 171.54589844 263.90209961 C171.55623611 265.08330383 171.56657379 266.26450806 171.57722473 267.48150635 C171.60157506 270.70221939 171.60849207 273.92239112 171.60750484 277.14317775 C171.61064415 280.51583164 171.63628337 283.88831472 171.65948486 287.26087952 C171.69997091 293.63905991 171.72036806 300.01713825 171.73345876 306.39542729 C171.74935399 313.66035523 171.78778011 320.92511014 171.82805204 328.18993747 C171.9103496 343.12656758 171.96450493 358.0631798 172 373 C193.91743929 365.91293524 211.00428092 348.94050696 221.40039062 328.75488281 C229.79142862 311.52244037 232.80441978 292.46561052 229.6875 273.5625 C229.51057617 272.38977539 229.51057617 272.38977539 229.33007812 271.19335938 C225.69512229 248.5075068 213.29561368 228.2914115 195.1796875 214.21875 C185.86672926 207.720273 176.0288306 201.97899395 166.01171875 196.640625 C156.38156751 191.39462822 146.95661531 185.75503587 137.52026367 180.16992188 C130.16184344 175.81576582 122.73791894 171.60476262 115.2512207 167.47509766 C108.68564811 163.846698 102.26795341 160.00570641 95.875 156.08203125 C94.8025 155.43621094 93.73 154.79039062 92.625 154.125 C91.64789063 153.52945313 90.67078125 152.93390625 89.6640625 152.3203125 C85.02395412 150.02066935 82.31392808 151.10632896 78.10546875 153.52734375 Z M12.375 191.625 C11.68567383 192.01671387 10.99634766 192.40842773 10.28613281 192.81201172 C0.85632263 198.19081479 -8.56817671 203.60222472 -17.86180115 209.21321106 C-21 211 -21 211 -24.13499451 212.38539124 C-30.45104872 215.31573609 -30.45104872 215.31573609 -34.16647339 220.91156006 C-34.67550541 224.54561562 -34.79445971 228.00610452 -34.76953125 231.67578125 C-34.79035757 233.00950111 -34.81398288 234.3431799 -34.84025574 235.67680359 C-34.8803865 238.4663099 -34.87493336 241.25124682 -34.83911133 244.04077148 C-34.80678061 246.88848111 -34.84130044 249.72200423 -34.94165039 252.56811523 C-36.06758728 267.59812599 -36.06758728 267.59812599 -31.40994263 281.20300293 C-27.47946355 284.69103895 -23.03190923 286.56894853 -18.10012817 288.24874878 C-15.25758388 289.26557475 -12.80135601 290.73828246 -10.23828125 292.3203125 C-7.71257317 293.76208841 -5.18363327 295.19787114 -2.65209961 296.62939453 C1.35017707 298.89663098 5.32855993 301.17900685 9.234375 303.609375 C9.86770752 303.99593262 10.50104004 304.38249023 11.15356445 304.78076172 C12.80775603 305.79541707 14.44938944 306.83046916 16.08984375 307.8671875 C19.90340615 309.35166146 21.2549295 308.49274159 25 307 C26.78531667 306.07055493 28.54352829 305.08749504 30.2734375 304.05859375 C31.25570312 303.47907959 32.23796875 302.89956543 33.25 302.30249023 C34.796875 301.37932007 34.796875 301.37932007 36.375 300.4375 C38.52804369 299.16564678 40.68169112 297.89481506 42.8359375 296.625 C44.41133301 295.69494141 44.41133301 295.69494141 46.01855469 294.74609375 C50.58332761 292.07271872 55.19487111 289.48636028 59.82568359 286.92944336 C61.55839636 285.96712285 63.2792558 284.98356174 65 284 C66.01882263 283.60432327 66.01882263 283.60432327 67.05822754 283.20065308 C69.56403434 282.06061764 71.14574024 281.05233832 73 279 C74.15059001 274.3967642 73.93016054 269.88696178 73.78125 265.16796875 C73.76631722 263.80751376 73.75493507 262.44701557 73.74694824 261.08650208 C73.71649174 257.51624458 73.63799771 253.94861709 73.54931641 250.37939453 C73.46727702 246.73310936 73.43089898 243.08639641 73.390625 239.43945312 C73.30498759 232.29189676 73.16856785 225.14612061 73 218 C69.44152077 215.94595089 65.88291141 213.89212742 62.32418823 211.83850098 C61.1169189 211.14178364 59.90968338 210.4450077 58.70248413 209.74816895 C51.14368849 205.38502217 43.57925861 201.03259592 35.9921875 196.71875 C31.74222435 194.27751791 27.53281114 191.76831469 23.328125 189.25 C18.91363436 186.87980368 16.33611747 189.35131466 12.375 191.625 Z M97 233 C96.99761165 233.71506997 96.99522329 234.43013994 96.99276257 235.1668787 C96.93358998 252.57752402 96.85802546 269.98802119 96.76428509 287.39851475 C96.71934668 295.81815399 96.67992752 304.23775112 96.65356445 312.6574707 C96.63056852 319.99731587 96.59715271 327.33702755 96.55129844 334.67676681 C96.52738765 338.56201806 96.50864487 342.44713729 96.50238609 346.3324604 C96.49632547 349.99247595 96.47629072 353.65215377 96.44572449 357.31204414 C96.43279338 359.28948153 96.43451152 361.26699789 96.4367218 363.24447632 C96.36999386 369.56489864 96.20918314 374.47688123 93 380 C84.79263752 387.79354588 73.29120493 393.02009526 63.43359375 398.51953125 C51.18601482 405.35584147 39.032589 412.35926684 26.95678711 419.49414062 C21.59325807 422.6606305 16.19500064 425.7598244 10.78125 428.83984375 C3.16203461 433.18204463 -4.41415051 437.59986658 -12 442 C-2.75563568 451.55205648 9.52642255 456.29130502 22 460 C23.07765625 460.3403125 24.1553125 460.680625 25.265625 461.03125 C39.41729968 464.95017529 55.0042613 464.04067893 69 460 C70.22074219 459.6596875 71.44148438 459.319375 72.69921875 458.96875 C86.09743476 454.89282817 97.50133304 448.32193371 108 439 C108.68449219 438.39800781 109.36898437 437.79601562 110.07421875 437.17578125 C124.81044617 423.36599642 135.64477024 402.16961689 137 382 C137.12799629 377.73472641 137.12684677 373.47347096 137.11352539 369.20654297 C137.11374443 367.34629738 137.11374443 367.34629738 137.1139679 365.44847107 C137.11339445 362.07931137 137.1084116 358.71021448 137.10139394 355.34106588 C137.09510289 351.80836265 137.09455208 348.27565841 137.09336853 344.74295044 C137.09027207 338.06736569 137.08208158 331.39179751 137.07201904 324.71622002 C137.06080534 317.11033102 137.05533425 309.5044412 137.05032361 301.89854598 C137.0398974 286.26568776 137.02233087 270.63284602 137 255 C136.41457932 254.66659607 135.82915863 254.33319214 135.22599792 253.98968506 C132.51864575 252.44714002 129.81205481 250.90326386 127.10546875 249.359375 C126.18503784 248.83520996 125.26460693 248.31104492 124.31628418 247.77099609 C117.55213013 243.91086334 110.83283401 239.9814906 104.16711426 235.95361328 C100.81780419 233.75478658 100.81780419 233.75478658 97 233 Z M63.4375 312.1875 C61.9662597 313.02624144 60.49490657 313.86478497 59.0234375 314.703125 C58.31928711 315.10595703 57.61513672 315.50878906 56.88964844 315.92382812 C54.79283537 317.11798213 52.68084891 318.28203696 50.5625 319.4375 C45.671917 322.14528042 40.87478391 325.01118503 36.06274414 327.85522461 C30.23831625 331.28988616 24.37636275 334.65510075 18.5 338 C11.33214663 342.08011263 4.20333752 346.2183548 -2.89404297 350.41967773 C-8.25464048 353.58394585 -13.67126 356.6386559 -19.10913086 359.66772461 C-23.75696178 362.26855052 -28.32343218 364.98484046 -32.875 367.75 C-35.24556325 369.17435701 -37.62179279 370.5883661 -40 372 C-41.39025391 372.82951172 -41.39025391 372.82951172 -42.80859375 373.67578125 C-48.45318565 376.80188129 -53.54527073 378.24930244 -60 377 C-64.43155715 375.001573 -68.6432332 372.57625864 -72.875 370.1875 C-73.5462793 369.80932129 -74.21755859 369.43114258 -74.90917969 369.04150391 C-86.35104528 362.5662744 -97.67363482 355.88080997 -109.01538086 349.23242188 C-115.66351787 345.34250315 -122.34815084 341.52428965 -129.0625 337.75 C-137.43083378 333.03580424 -145.7663304 328.26981495 -154.06079102 323.42675781 C-154.78709717 323.00362305 -155.51340332 322.58048828 -156.26171875 322.14453125 C-156.89037842 321.77690674 -157.51903809 321.40928223 -158.16674805 321.03051758 C-160.08168124 319.9540849 -162.02780051 318.96688205 -164 318 C-168.30588146 330.91764438 -164.93179402 347.33521135 -161 360 C-160.66097656 361.11375 -160.32195312 362.2275 -159.97265625 363.375 C-153.77354632 381.37668578 -141.87536888 395.52033388 -127 407 C-126.23816406 407.61359375 -125.47632813 408.2271875 -124.69140625 408.859375 C-118.01632694 413.9472938 -110.90578005 416.73896513 -103.00537109 419.33447266 C-101.17517644 419.94186377 -99.36177174 420.5992613 -97.55078125 421.26171875 C-81.08184666 426.61365302 -61.16112905 426.10771767 -45 420 C-44.32179199 419.75330566 -43.64358398 419.50661133 -42.94482422 419.25244141 C-34.27829445 416.0720456 -26.40218221 412.31691304 -18.62890625 407.296875 C-14.08609461 404.37342524 -9.38305345 401.73082807 -4.6875 399.0625 C-3.78209473 398.546875 -2.87668945 398.03125 -1.94384766 397.5 C2.83046333 394.78601881 7.61551499 392.09191481 12.40893555 389.41186523 C18.79854242 385.83898559 25.10765333 382.16261977 31.36791992 378.36767578 C35.11815913 376.10314027 38.89458363 373.90297738 42.73046875 371.78637695 C44.04433797 371.04863676 45.34532229 370.2875064 46.6328125 369.50463867 C50.51845083 367.17789496 54.09095942 365.61982815 58.45703125 364.3828125 C64.83214259 362.20353967 69.72721442 360.16412106 73 354 C76.25746172 339.30057034 74.20165011 322.87157821 73 308 C69.44155877 308 66.46309557 310.44434865 63.4375 312.1875 Z " fill="#10A27E" transform="translate(229,2)"/>
<path d="M0 0 C0.66 0 1.32 0 2 0 C3.125 4.75 3.125 4.75 2 7 C2.66 7 3.32 7 4 7 C4.15582193 31.99144077 3.92972598 56.97655502 3.59428024 81.96546555 C3.56257616 84.3692256 3.53254364 86.77300131 3.50296021 89.17678833 C3.45530299 93.02443186 3.40296269 96.87198544 3.34712219 100.71951866 C3.32695169 102.15036797 3.30816962 103.58123765 3.29090881 105.01212502 C3.19631543 112.7265841 2.96003431 120.34018627 2 128 C1.67 128 1.34 128 1 128 C0.67 85.76 0.34 43.52 0 0 Z " fill="#1E9977" transform="translate(365,256)"/>
<path d="M0 0 C3 1 3 1 4 3 C4.09270995 4.60920909 4.12192313 6.22226034 4.12025452 7.83413696 C4.12162918 8.85499893 4.12300385 9.8758609 4.12442017 10.92765808 C4.12082489 12.05190689 4.11722961 13.1761557 4.11352539 14.33447266 C4.11367142 15.51494675 4.11381744 16.69542084 4.1139679 17.91166687 C4.11338959 21.15319775 4.10836583 24.39468575 4.10139394 27.63620806 C4.09515306 31.02214911 4.09455602 34.40809095 4.09336853 37.79403687 C4.09025739 44.2078101 4.08204691 50.62156634 4.07201904 57.03533208 C4.06085119 64.33632547 4.05534576 71.63731965 4.05032361 78.93831944 C4.03986412 93.95888911 4.02226886 108.97944286 4 124 C6.97 123.01 6.97 123.01 10 122 C8.8125 123.5625 8.8125 123.5625 7 125 C5.35 124.67 3.7 124.34 2 124 C2 84.4 2 44.8 2 4 C0.35 4.33 -1.3 4.66 -3 5 C-2.01 3.35 -1.02 1.7 0 0 Z " fill="#28967B" transform="translate(397,251)"/>
<path d="M0 0 C0.598125 0.28875 1.19625 0.5775 1.8125 0.875 C2.80617384 3.85602152 2.93592524 5.79483775 2.93275452 8.90531921 C2.93412918 9.94438416 2.93550385 10.9834491 2.93692017 12.05400085 C2.93332489 13.19335587 2.92972961 14.33271088 2.92602539 15.5065918 C2.92617142 16.70671906 2.92631744 17.90684631 2.9264679 19.14334106 C2.9258902 22.43440532 2.92087154 25.725407 2.91389394 29.01646018 C2.9076468 32.45578054 2.90705552 35.89510172 2.90586853 39.33442688 C2.90275924 45.84733141 2.89455125 52.36021917 2.88451904 58.87311631 C2.87334545 66.2877946 2.86784431 73.70247368 2.86282361 81.11715829 C2.85236831 96.36978191 2.83477662 111.62238879 2.8125 126.875 C0.1560648 124.2185648 -0.1159307 122.23314877 -0.31054783 118.53995895 C-0.30916514 117.24023085 -0.30916514 117.24023085 -0.30775452 115.91424561 C-0.30912918 114.91587677 -0.31050385 113.91750793 -0.31192017 112.8888855 C-0.30832489 111.79987946 -0.30472961 110.71087341 -0.30102539 109.58886719 C-0.30117142 108.43736176 -0.30131744 107.28585632 -0.3014679 106.09945679 C-0.30077078 102.29024375 -0.2929877 98.4810795 -0.28515625 94.671875 C-0.28329136 92.03200304 -0.28186779 89.39213073 -0.28086853 86.7522583 C-0.27776147 80.51208966 -0.26955651 74.27193855 -0.25951904 68.03177762 C-0.24833849 60.92662297 -0.24284256 53.82146747 -0.23782361 46.71630621 C-0.22737338 32.10252843 -0.20978603 17.48876446 -0.1875 2.875 C-2.1675 3.535 -4.1475 4.195 -6.1875 4.875 C-6.1875 4.215 -6.1875 3.555 -6.1875 2.875 C-4.07102823 0.8341165 -2.99567331 -0.17118133 0 0 Z " fill="#2E9882" transform="translate(97.1875,124.125)"/>
<path d="M0 0 C0 0.66 0 1.32 0 2 C-0.6084375 1.82984375 -1.216875 1.6596875 -1.84375 1.484375 C-3.74985295 0.9573936 -5.65911474 0.44178756 -7.5703125 -0.06640625 C-9.9090702 -0.70303847 -12.23730017 -1.37934807 -14.5546875 -2.08984375 C-28.60699985 -6.12736908 -42.57201019 -5.79075958 -57 -4 C-56.67 -4.66 -56.34 -5.32 -56 -6 C-37.79245231 -11.65061825 -17.16485872 -7.05491441 0 0 Z " fill="#2C9D83" transform="translate(380,81)"/>
<path d="M0 0 C0.33 0.66 0.66 1.32 1 2 C1.66 2 2.32 2 3 2 C3 3.65 3 5.3 3 7 C3.66 7.33 4.32 7.66 5 8 C5.12375 8.680625 5.2475 9.36125 5.375 10.0625 C6.21993932 14.03371481 7.86292556 17.54842316 10 21 C10.66 21.33 11.32 21.66 12 22 C12.71247732 23.6476038 13.37400383 25.31763529 14 27 C15.03456506 29.43861764 15.92748822 30.92748822 17.8125 32.8125 C20.63481085 35.63481085 22.72851708 38.71896911 25 42 C24.67 42.66 24.34 43.32 24 44 C14.00150013 33.14364067 0 15.4006051 0 0 Z " fill="#2D987D" transform="translate(10,250)"/>
<path d="M0 0 C1.32 0.33 2.64 0.66 4 1 C-0.29 3.31 -4.58 5.62 -9 8 C-9.33 23.18 -9.66 38.36 -10 54 C-10.33 54 -10.66 54 -11 54 C-11.02534939 47.37972837 -11.04286664 40.75946924 -11.05493164 34.13916016 C-11.05996123 31.88687675 -11.06678566 29.63459661 -11.07543945 27.38232422 C-11.08756506 24.14549961 -11.09324206 20.90871817 -11.09765625 17.671875 C-11.10281754 16.66445251 -11.10797882 15.65703003 -11.11329651 14.61907959 C-11.11337204 13.67840637 -11.11344757 12.73773315 -11.11352539 11.76855469 C-11.115746 10.94248718 -11.11796661 10.11641968 -11.12025452 9.26531982 C-11.00259676 7.04891706 -10.61598788 5.12696307 -10 3 C-9.04287109 2.80083984 -9.04287109 2.80083984 -8.06640625 2.59765625 C-7.24011719 2.42105469 -6.41382813 2.24445313 -5.5625 2.0625 C-4.73878906 1.88847656 -3.91507813 1.71445313 -3.06640625 1.53515625 C-1.02338796 1.19247006 -1.02338796 1.19247006 0 0 Z " fill="#269A7A" transform="translate(206,137)"/>
<path d="M0 0 C2.52528186 2.52528186 2.30548851 3.54639885 2.44921875 7.05078125 C2.49240234 8.05947266 2.53558594 9.06816406 2.58007812 10.10742188 C2.63325195 11.69393555 2.63325195 11.69393555 2.6875 13.3125 C2.73455078 14.35857422 2.78160156 15.40464844 2.83007812 16.48242188 C3.01306902 21.1951873 3.0759667 25.38237482 2 30 C-2.44870215 30.39253254 -5.14243493 29.15305957 -9 27 C-9 26.34 -9 25.68 -9 25 C-9.72703125 24.88398438 -10.4540625 24.76796875 -11.203125 24.6484375 C-14.06193993 23.98563963 -16.19014155 23.04237129 -18.75 21.625 C-19.52859375 21.20476562 -20.3071875 20.78453125 -21.109375 20.3515625 C-23 19 -23 19 -24 16 C-20.59797567 17.28924356 -17.49435446 18.7652076 -14.35546875 20.6015625 C-13.59645264 21.04322754 -12.83743652 21.48489258 -12.05541992 21.93994141 C-10.63579956 22.77404541 -10.63579956 22.77404541 -9.1875 23.625 C-6.155625 25.39875 -3.12375 27.1725 0 29 C0 19.43 0 9.86 0 0 Z " fill="#2A987D" transform="translate(433,152)"/>
<path d="M0 0 C7.92 0 15.84 0 24 0 C24 0.66 24 1.32 24 2 C26.41700987 1.85870713 28.83350429 1.71213513 31.25 1.5625 C31.93191406 1.52318359 32.61382812 1.48386719 33.31640625 1.44335938 C36.6670771 1.23190927 39.75809959 0.83842252 43 0 C44.58211573 -0.06548492 46.16670081 -0.08578381 47.75 -0.0625 C48.54921875 -0.05347656 49.3484375 -0.04445313 50.171875 -0.03515625 C50.77515625 -0.02355469 51.3784375 -0.01195312 52 0 C52 0.33 52 0.66 52 1 C43.27150349 2.75449174 34.89154709 3.30824157 26 3.25 C24.81921875 3.25773437 23.6384375 3.26546875 22.421875 3.2734375 C14.75904826 3.25655903 7.51186307 2.50993951 0 1 C0 0.67 0 0.34 0 0 Z " fill="#299C80" transform="translate(130,457)"/>
<path d="M0 0 C0.66 0.33 1.32 0.66 2 1 C1.67 1.66 1.34 2.32 1 3 C0.01 3 -0.98 3 -2 3 C-2.33 3.99 -2.66 4.98 -3 6 C-5.85478326 7.90318884 -7.41941308 8.4619099 -10.6875 9.125 C-11.49574219 9.29257813 -12.30398438 9.46015625 -13.13671875 9.6328125 C-13.75160156 9.75398438 -14.36648438 9.87515625 -15 10 C-15 10.99 -15 11.98 -15 13 C-17.97 13.66 -20.94 14.32 -24 15 C-24 15.66 -24 16.32 -24 17 C-27 19 -27 19 -29.1875 18.625 C-30.0846875 18.315625 -30.0846875 18.315625 -31 18 C-26.11278667 15.1126391 -21.22042039 12.23433934 -16.32275391 9.36474609 C-14.15256524 8.0896405 -11.98807289 6.80534494 -9.82421875 5.51953125 C-8.57057791 4.78340198 -7.31668561 4.04770073 -6.0625 3.3125 C-4.37833984 2.31669922 -4.37833984 2.31669922 -2.66015625 1.30078125 C-1.78230469 0.87152344 -0.90445312 0.44226562 0 0 Z " fill="#23997B" transform="translate(271,62)"/>
<path d="M0 0 C1.35469976 2.6650137 2.61419672 5.35127459 3.8125 8.08984375 C8.46545444 18.48025969 13.57171024 27.36209312 21 36 C20.67 36.66 20.34 37.32 20 38 C19.34 36.68 18.68 35.36 18 34 C17.34 34 16.68 34 16 34 C15.34 32.35 14.68 30.7 14 29 C13.34 29 12.68 29 12 29 C-1.37305853 6.26911888 -1.37305853 6.26911888 -0.62109375 1.6953125 C-0.41613281 1.13585937 -0.21117187 0.57640625 0 0 Z " fill="#2A9B7C" transform="translate(41,237)"/>
<path d="M0 0 C0.66 0.99 1.32 1.98 2 3 C1.01 3.33 0.02 3.66 -1 4 C-0.67 5.98 -0.34 7.96 0 10 C-2.91765 11.9451 -4.62537285 12.45276317 -8 13 C-8.33 14.32 -8.66 15.64 -9 17 C-11.31 17.66 -13.62 18.32 -16 19 C-12.24040592 14.59852401 -8.45189879 10.22731564 -4.61328125 5.89453125 C-2.98842033 3.98640159 -1.48253172 2.02000545 0 0 Z " fill="#19A180" transform="translate(350,425)"/>
<path d="M0 0 C4.38368346 1.29503204 7.87416598 2.98968806 11.6875 5.5 C12.61949219 6.1084375 13.55148438 6.716875 14.51171875 7.34375 C16.34162872 8.56177485 18.17097346 9.78064897 20 11 C18.41773035 11.19627391 16.83410729 11.38165538 15.25 11.5625 C14.36828125 11.66691406 13.4865625 11.77132813 12.578125 11.87890625 C10.11567549 11.99456676 8.33461936 11.73638695 6 11 C6.33 10.01 6.66 9.02 7 8 C6.67 7.01 6.34 6.02 6 5 C5.01 4.67 4.02 4.34 3 4 C3 3.34 3 2.68 3 2 C2.01 1.67 1.02 1.34 0 1 C0 0.67 0 0.34 0 0 Z " fill="#18A07E" transform="translate(124,315)"/>
<path d="M0 0 C0.928125 0.061875 1.85625 0.12375 2.8125 0.1875 C0.23919275 2.18640831 -2.31932102 3.89476736 -5.1875 5.4375 C-10.09673966 8.10858381 -14.88940576 10.96041673 -19.68359375 13.83203125 C-22.1875 15.1875 -22.1875 15.1875 -24.1875 15.1875 C-23.8575 14.1975 -23.5275 13.2075 -23.1875 12.1875 C-21.2075 11.8575 -19.2275 11.5275 -17.1875 11.1875 C-17.1875 10.5275 -17.1875 9.8675 -17.1875 9.1875 C-16.5275 9.1875 -15.8675 9.1875 -15.1875 9.1875 C-15.1875 8.5275 -15.1875 7.8675 -15.1875 7.1875 C-13.8675 7.1875 -12.5475 7.1875 -11.1875 7.1875 C-10.8575 5.8675 -10.5275 4.5475 -10.1875 3.1875 C-8.8675 3.1875 -7.5475 3.1875 -6.1875 3.1875 C-5.73375 2.6925 -5.28 2.1975 -4.8125 1.6875 C-3.1875 0.1875 -3.1875 0.1875 0 0 Z " fill="#239E7C" transform="translate(297.1875,84.8125)"/>
<path d="M0 0 C0.91644287 0.00523682 1.83288574 0.01047363 2.77709961 0.01586914 C4.26113281 0.02070312 4.26113281 0.02070312 5.77514648 0.02563477 C6.81606445 0.03401367 7.85698242 0.04239258 8.92944336 0.05102539 C10.49662109 0.05779297 10.49662109 0.05779297 12.09545898 0.06469727 C14.68600996 0.07652627 17.27644895 0.0930085 19.86694336 0.11352539 C19.86694336 1.10352539 19.86694336 2.09352539 19.86694336 3.11352539 C19.0303418 3.09032227 18.19374023 3.06711914 17.33178711 3.04321289 C8.27555025 2.90280612 -0.17657489 3.73328017 -9.13305664 5.11352539 C-11.4661117 5.44880089 -13.799367 5.78269582 -16.13305664 6.11352539 C-13.69379746 3.15733711 -11.743339 2.58747737 -8.00805664 1.98852539 C-5.08835146 1.50613932 -2.70720011 0.14408241 0 0 Z " fill="#339E84" transform="translate(214.133056640625,33.886474609375)"/>
<path d="M0 0 C0.33 0 0.66 0 1 0 C0.09855531 10.34289168 -0.95719673 20.67063138 -2 31 C-2.33 31 -2.66 31 -3 31 C-3.04898438 29.72382813 -3.09796875 28.44765625 -3.1484375 27.1328125 C-3.22346191 25.46351928 -3.29900988 23.79424954 -3.375 22.125 C-3.42140625 20.86236328 -3.42140625 20.86236328 -3.46875 19.57421875 C-3.50742187 18.76855469 -3.54609375 17.96289062 -3.5859375 17.1328125 C-3.6173584 16.38918457 -3.6487793 15.64555664 -3.68115234 14.87939453 C-3.85419551 12.75989026 -3.85419551 12.75989026 -6 11 C-5.67 10.01 -5.34 9.02 -5 8 C-2.9375 7.3125 -2.9375 7.3125 -1 7 C-0.67 4.69 -0.34 2.38 0 0 Z " fill="#24987A" transform="translate(40,186)"/>
<path d="M0 0 C10.02461131 4.66440783 19.47443938 10.40993047 29 16 C26 18 26 18 24 18 C23.67 16.68 23.34 15.36 23 14 C21.68 14 20.36 14 19 14 C19 13.34 19 12.68 19 12 C18.32582031 11.74476563 17.65164062 11.48953125 16.95703125 11.2265625 C13.44867244 9.77131195 10.07321448 8.09052165 6.6875 6.375 C5.71973633 5.88773437 5.71973633 5.88773437 4.73242188 5.390625 C3.15402459 4.59558044 1.57688306 3.79804366 0 3 C0 2.01 0 1.02 0 0 Z " fill="#289A7B" transform="translate(92,296)"/>
<path d="M0 0 C0.77150391 0.36351562 0.77150391 0.36351562 1.55859375 0.734375 C1.00429688 1.03730469 0.45 1.34023437 -0.12109375 1.65234375 C-4.81364499 4.29318213 -4.81364499 4.29318213 -7.94140625 8.546875 C-8.10640625 9.26875 -8.27140625 9.990625 -8.44140625 10.734375 C-10.05015625 10.4559375 -10.05015625 10.4559375 -11.69140625 10.171875 C-14.84532171 9.8039182 -16.53959117 9.68972157 -19.44140625 10.734375 C-16.67038002 7.52688677 -13.12816047 5.57888724 -9.50390625 3.484375 C-8.88322266 3.10796875 -8.26253906 2.7315625 -7.62304688 2.34375 C-3.01186488 -0.3276909 -3.01186488 -0.3276909 0 0 Z " fill="#229B7E" transform="translate(259.44140625,156.265625)"/>
<path d="M0 0 C0.33 0 0.66 0 1 0 C1.04951788 4.4840341 1.08577526 8.96792239 1.10986328 13.45214844 C1.11990744 14.97691623 1.13354531 16.50166484 1.15087891 18.02636719 C1.17519738 20.22075138 1.18649889 22.41488042 1.1953125 24.609375 C1.20578613 25.92905273 1.21625977 27.24873047 1.22705078 28.60839844 C1.0179275 31.73220559 0.66605136 33.40580238 -1 36 C-1.39111271 34.08655626 -1.76231167 32.16903447 -2.125 30.25 C-2.33382813 29.18265625 -2.54265625 28.1153125 -2.7578125 27.015625 C-3 24 -3 24 -2.04101562 22.109375 C-0.84052602 19.67686324 -0.68978736 17.93447126 -0.5859375 15.234375 C-0.54726563 14.34492188 -0.50859375 13.45546875 -0.46875 12.5390625 C-0.4378125 11.61867188 -0.406875 10.69828125 -0.375 9.75 C-0.33632813 8.81414062 -0.29765625 7.87828125 -0.2578125 6.9140625 C-0.16375156 4.60956946 -0.07810601 2.30507987 0 0 Z " fill="#1CA483" transform="translate(492,278)"/>
<path d="M0 0 C0.66 0.99 1.32 1.98 2 3 C5.55672179 4.2188121 5.55672179 4.2188121 9 5 C9 5.66 9 6.32 9 7 C10.175625 7.4640625 10.175625 7.4640625 11.375 7.9375 C14 9 14 9 16 10 C16 10.66 16 11.32 16 12 C11.25881016 11.27239166 7.40916898 8.30329983 3.484375 5.70703125 C-1.40744706 2.71400855 -4.4084426 2.82996046 -10 4 C-10 3.34 -10 2.68 -10 2 C-6.61242079 -0.08466413 -3.94726562 -0.42905061 0 0 Z " fill="#2D9E80" transform="translate(318,151)"/>
<path d="M0 0 C0.66 0.33 1.32 0.66 2 1 C0.4375 3 0.4375 3 -2 5 C-5.75 5.25 -5.75 5.25 -9 5 C-9 5.66 -9 6.32 -9 7 C-14.71735105 9.45029331 -18.79029227 10.33266291 -25 10 C-21.17906623 7.93570331 -17.12799789 6.49722985 -13.0625 5 C-11.65736388 4.47967462 -10.2524116 3.9588525 -8.84765625 3.4375 C-8.18523926 3.19386719 -7.52282227 2.95023437 -6.84033203 2.69921875 C-5.249317 2.09472591 -3.68226643 1.42784974 -2.12109375 0.75 C-1.42113281 0.5025 -0.72117188 0.255 0 0 Z " fill="#26997D" transform="translate(199,415)"/>
<path d="M0 0 C0.99 0.33 1.98 0.66 3 1 C0.34072662 3.00999625 -2.32710427 5.00815624 -5 7 C-5.99966797 7.74830078 -5.99966797 7.74830078 -7.01953125 8.51171875 C-11.76719198 12 -11.76719198 12 -14 12 C-14 11.34 -14 10.68 -14 10 C-13.01 10 -12.02 10 -11 10 C-11 8.68 -11 7.36 -11 6 C-9.68 6 -8.36 6 -7 6 C-6.814375 5.0409375 -6.814375 5.0409375 -6.625 4.0625 C-6.41875 3.381875 -6.2125 2.70125 -6 2 C-3.50907189 0.75453595 -2.58919267 1.2232422 0 2 C0 1.34 0 0.68 0 0 Z " fill="#21997C" transform="translate(353,469)"/>
<path d="M0 0 C2.97 0.495 2.97 0.495 6 1 C2.12678305 4.28816124 -1.89533265 6.79349086 -6.3125 9.25 C-6.95767578 9.61351562 -7.60285156 9.97703125 -8.26757812 10.3515625 C-9.84281416 11.23836205 -11.42109714 12.11974563 -13 13 C-13.33 12.01 -13.66 11.02 -14 10 C-13.05125 9.9175 -12.1025 9.835 -11.125 9.75 C-7.90618118 9.35476069 -7.90618118 9.35476069 -6.6875 7 C-6.460625 6.34 -6.23375 5.68 -6 5 C-5 4 -5 4 -2.4375 3.9375 C-1.2309375 3.9684375 -1.2309375 3.9684375 0 4 C0 2.68 0 1.36 0 0 Z " fill="#219E7B" transform="translate(219,352)"/>
<path d="M0 0 C4.97357688 1.7342733 9.31498953 4.43327957 13.8125 7.125 C14.60076172 7.59292969 15.38902344 8.06085938 16.20117188 8.54296875 C18.13602454 9.69215397 20.06887228 10.84457003 22 12 C20 13 20 13 17.0625 12.25 C14.12060128 11.04922501 13.11281076 10.2046721 11 8 C8.45308542 6.86059085 5.90854141 5.97089954 3.25 5.125 C1 4 1 4 0.1875 1.875 C0.125625 1.25625 0.06375 0.6375 0 0 Z " fill="#269A7B" transform="translate(346,218)"/>
<path d="M0 0 C0.66 0.33 1.32 0.66 2 1 C-0.52598332 3.7064107 -2.69095547 5.39884942 -6 7 C-6.6496875 7.7734375 -6.6496875 7.7734375 -7.3125 8.5625 C-9.91350862 10.77817401 -12.6843889 10.6872065 -16 11 C-16 10.34 -16 9.68 -16 9 C-13.38029207 7.46935061 -10.75498357 5.95030252 -8.125 4.4375 C-7.37863281 3.99986328 -6.63226563 3.56222656 -5.86328125 3.11132812 C-5.14785156 2.70205078 -4.43242187 2.29277344 -3.6953125 1.87109375 C-3.03547363 1.48880615 -2.37563477 1.10651855 -1.69580078 0.71264648 C-1.13618652 0.47747314 -0.57657227 0.2422998 0 0 Z " fill="#229F7E" transform="translate(264,302)"/>
<path d="M0 0 C2.0625 0.4375 2.0625 0.4375 4 1 C1.25128227 2.62717634 -1.49919546 4.25135439 -4.25 5.875 C-5.02730469 6.33519531 -5.80460937 6.79539063 -6.60546875 7.26953125 C-7.35957031 7.71425781 -8.11367188 8.15898437 -8.890625 8.6171875 C-9.58188477 9.02565918 -10.27314453 9.43413086 -10.98535156 9.85498047 C-12.95916302 10.97679042 -14.96020237 12.0040988 -17 13 C-17 12.01 -17 11.02 -17 10 C-16.01 10 -15.02 10 -14 10 C-14 9.34 -14 8.68 -14 8 C-11.69 7.34 -9.38 6.68 -7 6 C-7 5.01 -7 4.02 -7 3 C-5.5459375 2.5359375 -5.5459375 2.5359375 -4.0625 2.0625 C-1.15934208 1.30476658 -1.15934208 1.30476658 0 0 Z " fill="#27987A" transform="translate(290,163)"/>
<path d="M0 0 C1.125 1.75 1.125 1.75 2 4 C1.125 6.25 1.125 6.25 0 8 C-1.65 7.67 -3.3 7.34 -5 7 C-5.33 8.65 -5.66 10.3 -6 12 C-7.32 12.33 -8.64 12.66 -10 13 C-8.4722133 9.56247993 -6.49818944 6.81046312 -4 4 C-3.34 4 -2.68 4 -2 4 C-1.34 2.68 -0.68 1.36 0 0 Z " fill="#189D7C" transform="translate(133,39)"/>
<path d="M0 0 C0.99 0.99 1.98 1.98 3 3 C2.26394531 3.39832031 1.52789062 3.79664063 0.76953125 4.20703125 C-0.20628906 4.73683594 -1.18210937 5.26664062 -2.1875 5.8125 C-3.63189453 6.59560547 -3.63189453 6.59560547 -5.10546875 7.39453125 C-7.01842069 8.45556127 -8.89862718 9.57814673 -10.73828125 10.76171875 C-11.48464844 11.17035156 -12.23101562 11.57898438 -13 12 C-13.66 11.67 -14.32 11.34 -15 11 C-13.60804085 8.2160817 -11.84424221 8.02101003 -9 7 C-9 6.34 -9 5.68 -9 5 C-5.535 4.505 -5.535 4.505 -2 4 C-2 3.34 -2 2.68 -2 2 C-1.34 2 -0.68 2 0 2 C0 1.34 0 0.68 0 0 Z " fill="#249C7C" transform="translate(289,399)"/>
<path d="M0 0 C6.22492092 2.99718414 12.1155372 6.38250238 18 10 C17.01 10.495 17.01 10.495 16 11 C14.23046875 10.22265625 14.23046875 10.22265625 12.1875 9.0625 C9.47607592 7.60854796 8.31859534 6.9929201 5.1875 7.0625 C4.1046875 7.0315625 4.1046875 7.0315625 3 7 C1.18116991 4.6167054 0 3.04181663 0 0 Z " fill="#25987B" transform="translate(146,327)"/>
<path d="M0 0 C13.88428033 1.4770511 13.88428033 1.4770511 17.765625 6.10546875 C18.17296875 6.73066406 18.5803125 7.35585938 19 8 C12.38757278 6.17778624 6.19479329 3.94776396 0 1 C0 0.67 0 0.34 0 0 Z " fill="#2B9C81" transform="translate(100,447)"/>
<path d="M0 0 C0.54785156 0.17015625 1.09570312 0.3403125 1.66015625 0.515625 C9.38805402 2.87797424 17.18559289 4.94741573 25 7 C25 7.33 25 7.66 25 8 C16.95558825 8.54848262 8.22789587 6.57536486 1 3 C0.67 2.01 0.34 1.02 0 0 Z " fill="#28967B" transform="translate(118,418)"/>
<path d="M0 0 C2.64 0.99 5.28 1.98 8 3 C7.67 3.66 7.34 4.32 7 5 C4.525 4.01 4.525 4.01 2 3 C0.88176185 5.23647631 0.80603939 6.64891529 0.68359375 9.1328125 C0.62075195 10.34130859 0.62075195 10.34130859 0.55664062 11.57421875 C0.51732422 12.41597656 0.47800781 13.25773437 0.4375 14.125 C0.39431641 14.97449219 0.35113281 15.82398438 0.30664062 16.69921875 C0.20045764 18.79928223 0.09971503 20.89961948 0 23 C-0.33 23 -0.66 23 -1 23 C-1.02887512 19.35418313 -1.04675585 15.70839537 -1.0625 12.0625 C-1.07087891 11.02158203 -1.07925781 9.98066406 -1.08789062 8.90820312 C-1.09272461 7.42416992 -1.09272461 7.42416992 -1.09765625 5.91015625 C-1.10289307 4.99371338 -1.10812988 4.07727051 -1.11352539 3.13305664 C-1 1 -1 1 0 0 Z " fill="#26957B" transform="translate(64,318)"/>
<path d="M0 0 C2.48323385 1.12146045 3.32059927 2.71913235 4.9375 4.875 C7.03165804 5.67123822 7.03165804 5.67123822 8.9375 5.875 C9.2675 7.195 9.5975 8.515 9.9375 9.875 C6.14700293 8.44750019 2.66627544 6.71263458 -0.875 4.75 C-1.85082031 4.21117187 -2.82664062 3.67234375 -3.83203125 3.1171875 C-4.56808594 2.70726562 -5.30414063 2.29734375 -6.0625 1.875 C-2.3203125 -0.140625 -2.3203125 -0.140625 0 0 Z " fill="#279B7C" transform="translate(92.0625,331.125)"/>
<path d="M0 0 C0 0.66 0 1.32 0 2 C-0.66 2 -1.32 2 -2 2 C-2.433125 2.9590625 -2.433125 2.9590625 -2.875 3.9375 C-4 6 -4 6 -6 7 C-7.66128463 7.35919668 -9.32900023 7.68911632 -11 8 C-11.928125 8.185625 -12.85625 8.37125 -13.8125 8.5625 C-14.534375 8.706875 -15.25625 8.85125 -16 9 C-13.50506504 6.18368359 -10.73437182 4.59044019 -7.4375 2.8125 C-6.46683594 2.28269531 -5.49617187 1.75289063 -4.49609375 1.20703125 C-2 0 -2 0 0 0 Z " fill="#28987C" transform="translate(202,103)"/>
<path d="M0 0 C7.69470323 1.90281165 14.17880719 4.99287343 21 9 C21 9.33 21 9.66 21 10 C19.35 10 17.7 10 16 10 C15.67 9.34 15.34 8.68 15 8 C13.02111039 7.27306096 11.02045442 6.60183749 9 6 C9 5.34 9 4.68 9 4 C6.03 3.67 3.06 3.34 0 3 C0 2.01 0 1.02 0 0 Z " fill="#29967D" transform="translate(266,10)"/>
<path d="M0 0 C0.66 0.33 1.32 0.66 2 1 C-0.21311475 6.6557377 -0.21311475 6.6557377 -4 8.3125 C-4.99 8.539375 -5.98 8.76625 -7 9 C-7.99 9.33 -8.98 9.66 -10 10 C-10 10.66 -10 11.32 -10 12 C-11.98 12.33 -13.96 12.66 -16 13 C-12.03882352 9.80550284 -8.02055363 6.68977069 -3.98828125 3.5859375 C-1.93120423 2.00577876 -1.93120423 2.00577876 0 0 Z " fill="#29977D" transform="translate(430,356)"/>
<path d="M0 0 C0.33 0 0.66 0 1 0 C0.53430878 7.8187104 -0.22458462 15.36399015 -2 23 C-2.66 23 -3.32 23 -4 23 C-4.23136637 17.4978184 -3.4350346 12.86146222 -2 7.5625 C-1.80921875 6.83095703 -1.6184375 6.09941406 -1.421875 5.34570312 C-0.95549597 3.56180334 -0.47881722 1.78060155 0 0 Z " fill="#27947A" transform="translate(35,295)"/>
<path d="M0 0 C0.72445312 0.39832031 1.44890625 0.79664063 2.1953125 1.20703125 C7.09133453 3.89005132 11.97918814 6.55744288 17 9 C13.52674819 10.1577506 10.63932552 10.06866652 7 10 C7.66 8.68 8.32 7.36 9 6 C5.7 5.34 2.4 4.68 -1 4 C-0.67 2.68 -0.34 1.36 0 0 Z " fill="#20997C" transform="translate(139,248)"/>
<path d="M0 0 C0.99 0.33 1.98 0.66 3 1 C2.07172661 2.79646436 1.13204162 4.58703557 0.1875 6.375 C-0.59560547 7.87160156 -0.59560547 7.87160156 -1.39453125 9.3984375 C-3 12 -3 12 -6 14 C-5.74445946 12.53890937 -5.46999628 11.08111904 -5.1875 9.625 C-5.03667969 8.81289063 -4.88585937 8.00078125 -4.73046875 7.1640625 C-4 5 -4 5 -1 3 C-0.67 2.01 -0.34 1.02 0 0 Z " fill="#1F9C7B" transform="translate(383,432)"/>
<path d="M0 0 C7.82110274 2.05818493 14.93075626 6.73998876 21 12 C12.87908081 10.76420795 5.30503496 6.21969616 0 0 Z " fill="#2D957C" transform="translate(325,206)"/>
<path d="M0 0 C5.72554976 4.25906017 11.37992202 8.60280936 17 13 C16.67 13.66 16.34 14.32 16 15 C14.68381002 14.21448343 13.37214772 13.4213763 12.0625 12.625 C10.96615234 11.96371094 10.96615234 11.96371094 9.84765625 11.2890625 C8 10 8 10 7 8 C6.01 7.67 5.02 7.34 4 7 C4 6.34 4 5.68 4 5 C3.34 5 2.68 5 2 5 C1.34 3.35 0.68 1.7 0 0 Z " fill="#269A7E" transform="translate(89,398)"/>
<path d="M0 0 C-0.52207031 0.23074219 -1.04414062 0.46148437 -1.58203125 0.69921875 C-2.31808594 1.02535156 -3.05414063 1.35148437 -3.8125 1.6875 C-4.62460938 2.04585938 -5.43671875 2.40421875 -6.2734375 2.7734375 C-8.18395042 3.6328946 -10.08430868 4.51511777 -11.9765625 5.4140625 C-12.95367187 5.87554687 -13.93078125 6.33703125 -14.9375 6.8125 C-15.85402344 7.25207031 -16.77054687 7.69164063 -17.71484375 8.14453125 C-18.84599609 8.56798828 -18.84599609 8.56798828 -20 9 C-20.66 8.67 -21.32 8.34 -22 8 C-19.56401192 6.68462636 -17.1263175 5.37260857 -14.6875 4.0625 C-13.99720703 3.68931641 -13.30691406 3.31613281 -12.59570312 2.93164062 C-11.92861328 2.57392578 -11.26152344 2.21621094 -10.57421875 1.84765625 C-9.65515747 1.3527771 -9.65515747 1.3527771 -8.7175293 0.84790039 C-5.35814733 -0.81054077 -3.52329345 -1.0934359 0 0 Z " fill="#2C977D" transform="translate(89,94)"/>
<path d="M0 0 C1.13199353 0.9080162 2.25532363 1.82683826 3.375 2.75 C4.00148438 3.26046875 4.62796875 3.7709375 5.2734375 4.296875 C7 6 7 6 8.0390625 8.140625 C8.91104318 10.35790369 8.91104318 10.35790369 12 11 C11.01 11.495 11.01 11.495 10 12 C9.34 11.67 8.68 11.34 8 11 C8 11.66 8 12.32 8 13 C7.34 13 6.68 13 6 13 C6 11.35 6 9.7 6 8 C5.195625 7.79375 4.39125 7.5875 3.5625 7.375 C2.2940625 6.694375 2.2940625 6.694375 1 6 C0.1875 2.875 0.1875 2.875 0 0 Z " fill="#24977D" transform="translate(426,73)"/>
<path d="M0 0 C0.33 0 0.66 0 1 0 C2.60881575 7.42640842 3.26442904 14.40501039 3 22 C2.67 22 2.34 22 2 22 C0.16282685 14.58569409 -0.23576736 7.62314474 0 0 Z " fill="#2F9B82" transform="translate(4,217)"/>
<path d="M0 0 C0.33 0.66 0.66 1.32 1 2 C-0.43257963 4.72872311 -1.81722366 6.81722366 -4 9 C-4.33 9.99 -4.66 10.98 -5 12 C-8.5625 13.1875 -8.5625 13.1875 -12 14 C-8 9.33333333 -4 4.66666667 0 0 Z " fill="#249B7D" transform="translate(346,430)"/>
<path d="M0 0 C1.305239 3.91571701 0.32239848 5.03892997 -1.4375 8.6875 C-1.91058594 9.68136719 -2.38367188 10.67523438 -2.87109375 11.69921875 C-3.42990234 12.83810547 -3.42990234 12.83810547 -4 14 C-4.33 14 -4.66 14 -5 14 C-5.33 11.03 -5.66 8.06 -6 5 C-5.195625 4.54625 -4.39125 4.0925 -3.5625 3.625 C-0.91143428 2.25274335 -0.91143428 2.25274335 0 0 Z " fill="#239B7C" transform="translate(392,416)"/>
<path d="M0 0 C6.75 0.875 6.75 0.875 9 2 C9 2.66 9 3.32 9 4 C9.78375 4.268125 10.5675 4.53625 11.375 4.8125 C14 6 14 6 16 9 C10.0942118 7.44584521 5.02261107 4.40465533 0 1 C0 0.67 0 0.34 0 0 Z " fill="#269E84" transform="translate(257,194)"/>
<path d="M0 0 C5.94 0 11.88 0 18 0 C17.67 0.66 17.34 1.32 17 2 C14.08913331 2.9702889 12.09776315 3.16467847 9.0625 3.1875 C8.20785156 3.20167969 7.35320312 3.21585937 6.47265625 3.23046875 C3.86090697 2.98703556 2.24499348 2.3178268 0 1 C0 0.67 0 0.34 0 0 Z " fill="#2D9F81" transform="translate(165,377)"/>
<path d="M0 0 C4.75 0.875 4.75 0.875 7 2 C7 2.66 7 3.32 7 4 C8.175625 4.2165625 8.175625 4.2165625 9.375 4.4375 C12 5 12 5 14 6 C14 6.66 14 7.32 14 8 C14.99 8.33 15.98 8.66 17 9 C16.01 9.495 16.01 9.495 15 10 C12.37756211 8.61511707 9.8901582 7.18421246 7.375 5.625 C6.66859375 5.19960938 5.9621875 4.77421875 5.234375 4.3359375 C3.46808541 3.25843265 1.73117753 2.1330578 0 1 C0 0.67 0 0.34 0 0 Z " fill="#2D9A7F" transform="translate(127,355)"/>
<path d="M0 0 C3.915141 3.35583515 6.0795774 7.28066362 8 12 C8 12.66 8 13.32 8 14 C5 13 5 13 3.3125 9.9375 C2.879375 8.968125 2.44625 7.99875 2 7 C1.34 7 0.68 7 0 7 C0 6.34 0 5.68 0 5 C-0.66 4.67 -1.32 4.34 -2 4 C-1.01 4 -0.02 4 1 4 C0.67 2.68 0.34 1.36 0 0 Z " fill="#269A7D" transform="translate(475,224)"/>
<path d="M0 0 C1.485 0.99 1.485 0.99 3 2 C3 2.99 3 3.98 3 5 C3.66 5.33 4.32 5.66 5 6 C5.4140625 8.94140625 5.4140625 8.94140625 5.625 12.5625 C5.69976562 13.76003906 5.77453125 14.95757812 5.8515625 16.19140625 C5.90054687 17.11824219 5.94953125 18.04507813 6 19 C4.13319275 15.58592908 3.00753328 12.09138697 1.875 8.375 C1.52179688 7.22773438 1.16859375 6.08046875 0.8046875 4.8984375 C0 2 0 2 0 0 Z " fill="#329E84" transform="translate(427,132)"/>
<path d="M0 0 C-0.33 0.99 -0.66 1.98 -1 3 C-9.91 2.67 -18.82 2.34 -28 2 C-28 1.67 -28 1.34 -28 1 C-24.08339071 0.83196656 -20.16670399 0.66581012 -16.25 0.5 C-15.13882813 0.45230469 -14.02765625 0.40460938 -12.8828125 0.35546875 C-11.27792969 0.28779297 -11.27792969 0.28779297 -9.640625 0.21875 C-8.65610352 0.17685547 -7.67158203 0.13496094 -6.65722656 0.09179688 C-4.43926319 0.01517484 -2.21928648 0 0 0 Z " fill="#209478" transform="translate(173,425)"/>
<path d="M0 0 C0 2 0 2 -1.0625 3.4375 C-3.8390762 5.67667436 -6.64610323 6.82319411 -10 8 C-12.22265625 7.578125 -12.22265625 7.578125 -14 7 C-12.04480616 5.82807953 -10.0857461 4.6626071 -8.125 3.5 C-7.03445313 2.8503125 -5.94390625 2.200625 -4.8203125 1.53125 C-2 0 -2 0 0 0 Z " fill="#27997B" transform="translate(282,143)"/>
<path d="M0 0 C0.33 0.66 0.66 1.32 1 2 C0.34 2 -0.32 2 -1 2 C-1.33 2.99 -1.66 3.98 -2 5 C-3.73413651 7.25437746 -4.82123843 7.9433195 -7.5625 8.8125 C-8.366875 8.874375 -9.17125 8.93625 -10 9 C-10.66 8.34 -11.32 7.68 -12 7 C-8.04 4.69 -4.08 2.38 0 0 Z " fill="#289B7F" transform="translate(311,125)"/>
<path d="M0 0 C0.33 0.99 0.66 1.98 1 3 C2.98 3 4.96 3 7 3 C-2 9 -2 9 -5 9 C-5 8.34 -5 7.68 -5 7 C-4.01 6.34 -3.02 5.68 -2 5 C-0.79549696 2.44816596 -0.79549696 2.44816596 0 0 Z " fill="#279D80" transform="translate(181,40)"/>
<path d="M0 0 C7.26 0 14.52 0 22 0 C22 0.33 22 0.66 22 1 C21.32453125 1.04898437 20.6490625 1.09796875 19.953125 1.1484375 C19.06109375 1.22320312 18.1690625 1.29796875 17.25 1.375 C15.92742187 1.47941406 15.92742187 1.47941406 14.578125 1.5859375 C12.00933618 1.99850055 10.24158985 2.71160957 8 4 C8 3.34 8 2.68 8 2 C5.36 1.67 2.72 1.34 0 1 C0 0.67 0 0.34 0 0 Z " fill="#1C967C" transform="translate(202,3)"/>
<path d="M0 0 C1.134375 0.020625 2.26875 0.04125 3.4375 0.0625 C0.65755549 1.91579634 -1.34506551 2.74813605 -4.5 3.6875 C-5.78197266 4.07808594 -5.78197266 4.07808594 -7.08984375 4.4765625 C-9.5625 5.0625 -9.5625 5.0625 -13.5625 5.0625 C-13.2325 4.0725 -12.9025 3.0825 -12.5625 2.0625 C-10.51171875 1.83463542 -8.4609375 1.60677083 -6.41015625 1.37890625 C-3.20046765 0.82925556 -4.00105232 0.0701939 0 0 Z " fill="#2A9D7F" transform="translate(407.5625,406.9375)"/>
<path d="M0 0 C0.33 0 0.66 0 1 0 C1.34884724 4.89839668 0.46792622 7.65895937 -2 11.875 C-2.556875 12.84179688 -3.11375 13.80859375 -3.6875 14.8046875 C-4.120625 15.52914063 -4.55375 16.25359375 -5 17 C-5.66 17 -6.32 17 -7 17 C-5.24009216 11.08030998 -2.60305395 5.58365008 0 0 Z " fill="#2B9A7F" transform="translate(454,320)"/>
<path d="M0 0 C0.33 0 0.66 0 1 0 C1.66 5.61 2.32 11.22 3 17 C0.32353791 15.66176895 -0.40956518 13.81467239 -1.53515625 11.12109375 C-2.38244439 7.25489659 -1.16643914 3.70071698 0 0 Z " fill="#26977C" transform="translate(38,219)"/>
<path d="M0 0 C1.32 0.33 2.64 0.66 4 1 C1.8782637 2.33878572 -0.24705188 3.67115476 -2.375 5 C-2.97828125 5.3815625 -3.5815625 5.763125 -4.203125 6.15625 C-8.7734375 9 -8.7734375 9 -11 9 C-9.88809524 5.66428571 -9.53679327 5.41582921 -6.625 3.8125 C-6.01914063 3.46832031 -5.41328125 3.12414062 -4.7890625 2.76953125 C-3 2 -3 2 0 2 C0 1.34 0 0.68 0 0 Z " fill="#27997D" transform="translate(207,211)"/>
<path d="M0 0 C1.98 0 3.96 0 6 0 C6.33 0.66 6.66 1.32 7 2 C6.154375 2.0825 5.30875 2.165 4.4375 2.25 C1.39387909 2.91406274 -0.171085 3.55710619 -2.75 5.125 C-3.8225 5.74375 -4.895 6.3625 -6 7 C-6.66 6.67 -7.32 6.34 -8 6 C-8 5.34 -8 4.68 -8 4 C-7.34 4 -6.68 4 -6 4 C-5.34 3.01 -4.68 2.02 -4 1 C-2.68 1.33 -1.36 1.66 0 2 C0 1.34 0 0.68 0 0 Z " fill="#23977D" transform="translate(245,189)"/>
<path d="M0 0 C6.4084507 -0.49295775 6.4084507 -0.49295775 9.25 1.875 C9.8275 2.57625 10.405 3.2775 11 4 C11.99 4.66 12.98 5.32 14 6 C14 6.66 14 7.32 14 8 C9.02790438 6.23570801 4.56561939 3.6060834 0 1 C0 0.67 0 0.34 0 0 Z " fill="#289C80" transform="translate(347,171)"/>
<path d="M0 0 C1.125 3.75 1.125 3.75 0 6 C0.66 6.33 1.32 6.66 2 7 C-0.17424117 9.50037734 -1.73045798 10.43628586 -5 11 C-3.77472971 6.94718288 -2.30119506 3.55639236 0 0 Z " fill="#239C7E" transform="translate(20,149)"/>
<path d="M0 0 C1.29539465 2.13359119 2.03274515 3.47607754 1.875 6 C0.72196182 8.63551585 -0.81929192 10.14970223 -3 12 C-3.66 12 -4.32 12 -5 12 C-3.68938409 7.76570244 -2.05643741 3.92592596 0 0 Z " fill="#20997E" transform="translate(358,410)"/>
<path d="M0 0 C4.95431487 0.4608665 7.24174747 1.83515577 11 5 C11.7425 5.185625 12.485 5.37125 13.25 5.5625 C13.8275 5.706875 14.405 5.85125 15 6 C15.33 6.99 15.66 7.98 16 9 C10.0942118 7.44584521 5.02261107 4.40465533 0 1 C0 0.67 0 0.34 0 0 Z " fill="#2B9B7E" transform="translate(193,307)"/>
<path d="M0 0 C0.33 0.66 0.66 1.32 1 2 C0.67 2.99 0.34 3.98 0 5 C-2.61497339 6.23867161 -5.25511949 7.08503983 -8 8 C-8.99 7.34 -9.98 6.68 -11 6 C-7.37 4.02 -3.74 2.04 0 0 Z " fill="#209C7C" transform="translate(214,181)"/>
<path d="M0 0 C0.66 0 1.32 0 2 0 C0 5 -2 10 -4 15 C-4.33 15 -4.66 15 -5 15 C-5.75 11.75 -5.75 11.75 -6 8 C-4.1875 5.8125 -4.1875 5.8125 -2 4 C-0.76487921 1.86690808 -0.76487921 1.86690808 0 0 Z " fill="#299B7C" transform="translate(47,168)"/>
<path d="M0 0 C0.99 0.33 1.98 0.66 3 1 C2.67 2.32 2.34 3.64 2 5 C2.66 5 3.32 5 4 5 C4 5.66 4 6.32 4 7 C4.99 7 5.98 7 7 7 C7 7.66 7 8.32 7 9 C2.69235185 7.43358249 -1.06171464 5.31663844 -5 3 C-4.360625 2.87625 -3.72125 2.7525 -3.0625 2.625 C-2.0415625 2.315625 -2.0415625 2.315625 -1 2 C-0.67 1.34 -0.34 0.68 0 0 Z " fill="#299C80" transform="translate(340,162)"/>
<path d="M0 0 C1.63234937 0.90351441 3.25566824 1.8233569 4.875 2.75 C6.23238281 3.51570313 6.23238281 3.51570313 7.6171875 4.296875 C10.07970989 6.05697297 10.94467523 7.21006094 12 10 C9.0625 9.1875 9.0625 9.1875 6 8 C5.67 7.01 5.34 6.02 5 5 C4.01 5 3.02 5 2 5 C1.34 3.35 0.68 1.7 0 0 Z " fill="#20977B" transform="translate(288,20)"/>
<path d="M0 0 C3.70066609 0.90460727 5.56497978 1.43868358 7.9375 4.5 C8.288125 5.325 8.63875 6.15 9 7 C8.67 7.66 8.34 8.32 8 9 C6.84775972 8.07038578 5.70340824 7.1309875 4.5625 6.1875 C3.60537109 5.40439453 3.60537109 5.40439453 2.62890625 4.60546875 C1 3 1 3 0 0 Z " fill="#249C7F" transform="translate(62,418)"/>
<path d="M0 0 C0.99 0.33 1.98 0.66 3 1 C-0.19990508 3.74277578 -3.00499382 5.6302836 -7 7 C-7 5.35 -7 3.7 -7 2 C-6.01 1.67 -5.02 1.34 -4 1 C-4 1.66 -4 2.32 -4 3 C-3.34 3 -2.68 3 -2 3 C-2 2.34 -2 1.68 -2 1 C-1.34 0.67 -0.68 0.34 0 0 Z " fill="#1F9D7F" transform="translate(232,121)"/>
<path d="M0 0 C-1.7472544 1.29537826 -3.49791517 2.58616273 -5.25 3.875 C-6.22453125 4.59429687 -7.1990625 5.31359375 -8.203125 6.0546875 C-10.43902154 7.60982225 -12.52872493 8.88204223 -15 10 C-14.67 9.01 -14.34 8.02 -14 7 C-13.34 7 -12.68 7 -12 7 C-11.67 6.01 -11.34 5.02 -11 4 C-10.01 3.67 -9.02 3.34 -8 3 C-7.67 2.34 -7.34 1.68 -7 1 C-4.01793274 -0.8886426 -3.49368922 -1.16456307 0 0 Z " fill="#319A7D" transform="translate(176,50)"/>
<path d="M0 0 C5 6.59090909 5 6.59090909 5 10 C5.66 10 6.32 10 7 10 C7.33 11.65 7.66 13.3 8 15 C4.23583908 11.65407918 1.07209735 7.60781467 -1 3 C-0.67 2.01 -0.34 1.02 0 0 Z " fill="#2B9780" transform="translate(44,390)"/>
<path d="M0 0 C-0.57584432 2.38564077 -1.22227595 4.66682784 -2 7 C-4.31 6.34 -6.62 5.68 -9 5 C-2.87096774 0 -2.87096774 0 0 0 Z " fill="#219C7D" transform="translate(296,360)"/>
<path d="M0 0 C0.33 0 0.66 0 1 0 C1 7.59 1 15.18 1 23 C0.67 23 0.34 23 0 23 C-0.16811728 20.25008168 -0.3345481 17.50007888 -0.5 14.75 C-0.54769531 13.97269531 -0.59539062 13.19539062 -0.64453125 12.39453125 C-0.71220703 11.26337891 -0.71220703 11.26337891 -0.78125 10.109375 C-0.82314453 9.41811523 -0.86503906 8.72685547 -0.90820312 8.01464844 C-1.16703687 2.33407375 -1.16703687 2.33407375 0 0 Z " fill="#17A784" transform="translate(194,168)"/>
<path d="M0 0 C3.59391114 1.33488128 6.75490696 2.96022723 10 5 C9.01 5.33 8.02 5.66 7 6 C6.67 6.66 6.34 7.32 6 8 C5.67 7.34 5.34 6.68 5 6 C4.01 5.67 3.02 5.34 2 5 C2 4.01 2 3.02 2 2 C1.34 2 0.68 2 0 2 C0 1.34 0 0.68 0 0 Z " fill="#219C7D" transform="translate(352,135)"/>
<path d="M0 0 C5.27749285 0.53851968 9.25645564 1.77343836 14 4 C14 4.66 14 5.32 14 6 C12.41375765 5.57316761 10.8310902 5.13303842 9.25 4.6875 C8.36828125 4.44386719 7.4865625 4.20023437 6.578125 3.94921875 C3.94227495 2.97874669 2.14592674 1.78994356 0 0 Z " fill="#2E9C82" transform="translate(222,487)"/>
<path d="M0 0 C-2.36797991 2.61724095 -4.89600354 4.32861729 -8 6 C-8.66 6 -9.32 6 -10 6 C-9.67 4.35 -9.34 2.7 -9 1 C-5.8035914 -0.06546953 -3.34252724 -0.07427838 0 0 Z " fill="#249B7B" transform="translate(262,418)"/>
<path d="M0 0 C-0.1875 1.875 -0.1875 1.875 -1 4 C-4.73987087 5.97993164 -8.93046405 6.88287248 -13 8 C-9.81692689 4.43495812 -5.03655764 0 0 0 Z " fill="#2B9A7E" transform="translate(214,407)"/>
<path d="M0 0 C0.763125 0.20625 1.52625 0.4125 2.3125 0.625 C-6.4375 7.625 -6.4375 7.625 -10.6875 7.625 C-10.6875 6.965 -10.6875 6.305 -10.6875 5.625 C-10.048125 5.33625 -9.40875 5.0475 -8.75 4.75 C-6.53543921 3.79676549 -6.53543921 3.79676549 -5.6875 1.625 C-2.6875 -0.375 -2.6875 -0.375 0 0 Z " fill="#1E957B" transform="translate(247.6875,338.375)"/>
<path d="M0 0 C0.66 0.33 1.32 0.66 2 1 C1.67 1.99 1.34 2.98 1 4 C0.01 4 -0.98 4 -2 4 C-2.33 4.66 -2.66 5.32 -3 6 C-4.8125 6.5625 -4.8125 6.5625 -7 7 C-8.11375 7.2784375 -8.11375 7.2784375 -9.25 7.5625 C-9.8275 7.706875 -10.405 7.85125 -11 8 C-7.71644638 4.32241995 -4.37221763 2.18610882 0 0 Z " fill="#25987E" transform="translate(222,326)"/>
<path d="M0 0 C3.3 1.65 6.6 3.3 10 5 C9.01 5.33 8.02 5.66 7 6 C6.67 6.66 6.34 7.32 6 8 C4.125 7.375 4.125 7.375 2 6 C0.75 2.875 0.75 2.875 0 0 Z " fill="#1F987C" transform="translate(384,240)"/>
<path d="M0 0 C-1.95519384 1.17192047 -3.9142539 2.3373929 -5.875 3.5 C-6.96554687 4.1496875 -8.05609375 4.799375 -9.1796875 5.46875 C-12 7 -12 7 -14 7 C-14 6.34 -14 5.68 -14 5 C-11.875 3.5625 -11.875 3.5625 -9 2 C-7.96875 1.4225 -6.9375 0.845 -5.875 0.25 C-3 -1 -3 -1 0 0 Z " fill="#2C9B7F" transform="translate(308,156)"/>
<path d="M0 0 C2.97 0.495 2.97 0.495 6 1 C2.35140239 4.04049801 -1.7444533 5.96518762 -6 8 C-6 7.01 -6 6.02 -6 5 C-4.02 4.34 -2.04 3.68 0 3 C0 2.01 0 1.02 0 0 Z " fill="#269B7B" transform="translate(227,434)"/>
<path d="M0 0 C0 0.66 0 1.32 0 2 C-3.75960806 5.75960806 -6.75900345 6.58894145 -12 7 C-9.20232475 3.70861735 -4.40323273 0 0 0 Z " fill="#2B9A7D" transform="translate(249,387)"/>
<path d="M0 0 C5.31027254 1.46032495 9.46330032 3.98320986 14 7 C11.62392051 7.83583327 10.45550373 8.1842383 8.078125 7.22265625 C6.38541667 6.1484375 4.69270833 5.07421875 3 4 C3 3.34 3 2.68 3 2 C2.01 1.67 1.02 1.34 0 1 C0 0.67 0 0.34 0 0 Z " fill="#29977A" transform="translate(124,315)"/>
<path d="M0 0 C4.53548387 -0.36774194 4.53548387 -0.36774194 6.5 1.1875 C6.995 1.785625 7.49 2.38375 8 3 C8.886875 3.886875 9.77375 4.77375 10.6875 5.6875 C11.8321875 6.8321875 11.8321875 6.8321875 13 8 C8.27626146 6.37621488 4.05818166 3.89006982 0 1 C0 0.67 0 0.34 0 0 Z " fill="#279D82" transform="translate(405,204)"/>
<path d="M0 0 C3.79049707 1.42749981 7.27122456 3.16236542 10.8125 5.125 C12.27623047 5.93324219 12.27623047 5.93324219 13.76953125 6.7578125 C14.50558594 7.16773438 15.24164063 7.57765625 16 8 C14.68 8.33 13.36 8.66 12 9 C12 8.34 12 7.68 12 7 C10.700625 6.5978125 10.700625 6.5978125 9.375 6.1875 C6.08208036 5.02888013 3.08872125 3.61790161 0 2 C0 1.34 0 0.68 0 0 Z " fill="#29957A" transform="translate(280,180)"/>
<path d="M0 0 C3.375 0.6875 3.375 0.6875 7 2 C8.4375 4.625 8.4375 4.625 9 7 C5.2089881 5.55049545 1.6125362 3.84827434 -2 2 C-1.34 1.34 -0.68 0.68 0 0 Z " fill="#2B9D7F" transform="translate(266,45)"/>
<path d="M0 0 C2.96865509 2.54456151 4.3619751 5.48994665 6 9 C1.125 8.125 1.125 8.125 0 7 C-0.04092937 4.66702567 -0.04241723 2.33294775 0 0 Z " fill="#20AA6D" transform="translate(73,375)"/>
<path d="M0 0 C0.99 0 1.98 0 3 0 C3.061875 0.8971875 3.061875 0.8971875 3.125 1.8125 C3.87739901 4.35100832 3.87739901 4.35100832 7.0625 5.75 C8.5165625 6.36875 8.5165625 6.36875 10 7 C8.234375 7.65234375 8.234375 7.65234375 6 8 C4.078125 7.00390625 4.078125 7.00390625 2.25 5.5625 C1.63640625 5.08941406 1.0228125 4.61632812 0.390625 4.12890625 C-0.06828125 3.75636719 -0.5271875 3.38382813 -1 3 C-0.67 2.01 -0.34 1.02 0 0 Z " fill="#23A27A" transform="translate(292,211)"/>
<path d="M0 0 C0.99 0 1.98 0 3 0 C1.44499019 3.81684226 -1.03595495 6.19195732 -4 9 C-4.66 8.67 -5.32 8.34 -6 8 C-5.34 6.68 -4.68 5.36 -4 4 C-3.01 4 -2.02 4 -1 4 C-0.67 2.68 -0.34 1.36 0 0 Z " fill="#2B947A" transform="translate(365,457)"/>
<path d="M0 0 C1.32 0 2.64 0 4 0 C4.33 1.32 4.66 2.64 5 4 C6.32 4.33 7.64 4.66 9 5 C9 5.66 9 6.32 9 7 C5.56072421 5.7580393 2.74792181 4.44259716 0 2 C0 1.34 0 0.68 0 0 Z " fill="#299B7E" transform="translate(82,435)"/>
<path d="M0 0 C2.97 0.495 2.97 0.495 6 1 C2.98112756 4.48331435 0.43090471 5.79157144 -4 7 C-3.525625 6.21625 -3.05125 5.4325 -2.5625 4.625 C-1.66101977 3.11051322 -0.78820515 1.5764103 0 0 Z " fill="#249F7D" transform="translate(229,346)"/>
<path d="M0 0 C0 3.61029169 -0.96092582 6.55806676 -2 10 C-3.32 10.33 -4.64 10.66 -6 11 C-4.54955729 6.89041233 -2.48889248 3.56741255 0 0 Z " fill="#25987C" transform="translate(27,138)"/>
<path d="M0 0 C5.94 3.465 5.94 3.465 12 7 C10.68 7.33 9.36 7.66 8 8 C8 7.34 8 6.68 8 6 C6.8553125 6.12375 6.8553125 6.12375 5.6875 6.25 C3 6 3 6 1.1875 4.125 C0 2 0 2 0 0 Z " fill="#26977C" transform="translate(222,448)"/>
<path d="M0 0 C-0.66 1.32 -1.32 2.64 -2 4 C-3.32 4 -4.64 4 -6 4 C-6.33 4.99 -6.66 5.98 -7 7 C-8.32 6.67 -9.64 6.34 -11 6 C-9.54550599 4.9944239 -8.08627557 3.99569565 -6.625 3 C-5.40683594 2.1646875 -5.40683594 2.1646875 -4.1640625 1.3125 C-2 0 -2 0 0 0 Z " fill="#2C987E" transform="translate(264,378)"/>
<path d="M0 0 C0.99 1.32 1.98 2.64 3 4 C2.01 4.495 2.01 4.495 1 5 C0.01 4.67 -0.98 4.34 -2 4 C-2 5.32 -2 6.64 -2 8 C-3.65 8.33 -5.3 8.66 -7 9 C-6.02180976 7.68677212 -5.0424189 6.37443848 -4.0625 5.0625 C-3.51722656 4.33160156 -2.97195313 3.60070312 -2.41015625 2.84765625 C-1 1 -1 1 0 0 Z " fill="#24987C" transform="translate(439,347)"/>
<path d="M0 0 C3.7910119 1.44950455 7.3874638 3.15172566 11 5 C8.3260876 5.89130413 5.76276177 6.47731534 3 7 C2.87625 6.360625 2.7525 5.72125 2.625 5.0625 C2.315625 4.0415625 2.315625 4.0415625 2 3 C1.34 2.67 0.68 2.34 0 2 C0 1.34 0 0.68 0 0 Z " fill="#24977A" transform="translate(368,231)"/>
<path d="M0 0 C-1.45537568 0.83848804 -2.91440373 1.67063934 -4.375 2.5 C-5.59316406 3.19609375 -5.59316406 3.19609375 -6.8359375 3.90625 C-9 5 -9 5 -11 5 C-11 4.34 -11 3.68 -11 3 C-10.34 3 -9.68 3 -9 3 C-9 2.34 -9 1.68 -9 1 C-5.47051709 -0.66670026 -3.71727674 -1.13583456 0 0 Z " fill="#26967B" transform="translate(311,391)"/>
<path d="M0 0 C3.25 0.125 3.25 0.125 7 1 C9.4375 4.0625 9.4375 4.0625 11 7 C6.89188572 5.55007731 3.53144334 3.54592427 0 1 C0 0.67 0 0.34 0 0 Z " fill="#2D9B7F" transform="translate(140,276)"/>
<path d="M0 0 C2.13093906 1.06546953 3.36587557 2.29159719 5 4 C4.67 4.99 4.34 5.98 4 7 C1.36 5.35 -1.28 3.7 -4 2 C-2.68 1.34 -1.36 0.68 0 0 Z " fill="#23A386" transform="translate(396,196)"/>
<path d="M0 0 C0.33 0.99 0.66 1.98 1 3 C-0.0725 2.979375 -1.145 2.95875 -2.25 2.9375 C-5.14790424 2.9857984 -7.28612141 3.13155885 -10 4 C-10 3.34 -10 2.68 -10 2 C-6.5980513 -0.09350689 -3.94727588 -0.17942163 0 0 Z " fill="#21977E" transform="translate(318,151)"/>
<path d="M0 0 C4.43090471 1.20842856 6.98112756 2.51668565 10 6 C5.8333396 5.52651586 3.07115285 4.95303159 0 2 C0 1.34 0 0.68 0 0 Z " fill="#259A80" transform="translate(333,124)"/>
<path d="M0 0 C3.08089673 2.77280706 4.68775452 5.06326356 6 9 C4.125 8.6875 4.125 8.6875 2 8 C-0.1519437 4.77208445 -0.20086443 3.71599191 0 0 Z " fill="#28957C" transform="translate(443,92)"/>
<path d="M0 0 C5.03985731 0.44469329 7.37634988 2.71343362 11 6 C10.01 6.495 10.01 6.495 9 7 C7.4972763 6.02501855 5.99788037 5.04490611 4.5 4.0625 C3.6646875 3.51722656 2.829375 2.97195312 1.96875 2.41015625 C1.3190625 1.94480469 0.669375 1.47945313 0 1 C0 0.67 0 0.34 0 0 Z " fill="#2EA47F" transform="translate(385,85)"/>
<path d="M0 0 C2.97 0.495 2.97 0.495 6 1 C5.67 1.66 5.34 2.32 5 3 C2.6859378 3.73075648 0.35171131 4.40138258 -2 5 C-1.34 3.35 -0.68 1.7 0 0 Z " fill="#1A9B7D" transform="translate(414,402)"/>
<path d="M0 0 C2.125 0.9375 2.125 0.9375 4 2 C1.03 4.475 1.03 4.475 -2 7 C-2 5.02 -2 3.04 -2 1 C-1.34 0.67 -0.68 0.34 0 0 Z " fill="#23997B" transform="translate(460,370)"/>
<path d="M0 0 C1.32 0.33 2.64 0.66 4 1 C4 2.65 4 4.3 4 6 C0 6 0 6 -2 5 C-1.34 3.35 -0.68 1.7 0 0 Z " fill="#199C7B" transform="translate(443,341)"/>
<path d="M0 0 C1.32 0 2.64 0 4 0 C5.0625 1.875 5.0625 1.875 6 4 C5.67 4.66 5.34 5.32 5 6 C3.68 5.67 2.36 5.34 1 5 C0.67 3.35 0.34 1.7 0 0 Z " fill="#189B7C" transform="translate(393,247)"/>
<path d="M0 0 C0 0.66 0 1.32 0 2 C-2.99106784 4.36503039 -5.02861582 5.91553181 -8.875 6.25 C-9.57625 6.1675 -10.2775 6.085 -11 6 C-3.8 0 -3.8 0 0 0 Z " fill="#26977E" transform="translate(228,174)"/>
<path d="M0 0 C4.3177458 0.50797009 8.03302114 1.19682779 12 3 C12 3.33 12 3.66 12 4 C5.25 4.125 5.25 4.125 3 3 C3 2.34 3 1.68 3 1 C2.01 0.67 1.02 0.34 0 0 Z " fill="#2A987B" transform="translate(253,6)"/>
<path d="M0 0 C1.65 0 3.3 0 5 0 C1.98112756 3.48331435 -0.56909529 4.79157144 -5 6 C-4.67 5.34 -4.34 4.68 -4 4 C-3.34 4 -2.68 4 -2 4 C-1.34 2.68 -0.68 1.36 0 0 Z " fill="#299B7C" transform="translate(241,427)"/>
<path d="M0 0 C0.66 0.66 1.32 1.32 2 2 C0.71475739 2.86380259 -0.57842419 3.71580369 -1.875 4.5625 C-2.59429687 5.03816406 -3.31359375 5.51382812 -4.0546875 6.00390625 C-4.69664062 6.33261719 -5.33859375 6.66132813 -6 7 C-6.66 6.67 -7.32 6.34 -8 6 C-6.1875 4 -6.1875 4 -4 2 C-3.01 2 -2.02 2 -1 2 C-0.67 1.34 -0.34 0.68 0 0 Z " fill="#2A977A" transform="translate(433,394)"/>
<path d="M0 0 C1.65 1.65 3.3 3.3 5 5 C4.67 5.66 4.34 6.32 4 7 C1.83125748 6.49396008 0.00032373 6.00016187 -2 5 C-1.34 3.35 -0.68 1.7 0 0 Z " fill="#239A7D" transform="translate(78,384)"/>
<path d="M0 0 C2.31 0.33 4.62 0.66 7 1 C4.77810176 3.22189824 2.91517292 3.92598892 0 5 C-0.33 4.01 -0.66 3.02 -1 2 C-0.67 1.34 -0.34 0.68 0 0 Z " fill="#1E9B7B" transform="translate(184,372)"/>
<path d="M0 0 C0.33 0.66 0.66 1.32 1 2 C-1 5 -1 5 -2.9453125 5.51171875 C-3.66460937 5.56972656 -4.38390625 5.62773437 -5.125 5.6875 C-7.043125 5.8421875 -7.043125 5.8421875 -9 6 C-6.11912454 3.59927045 -3.43595166 1.52708963 0 0 Z " fill="#23997B" transform="translate(301,281)"/>
<path d="M0 0 C0.33 0.99 0.66 1.98 1 3 C1.66 3.33 2.32 3.66 3 4 C3 4.66 3 5.32 3 6 C-0.77545388 4.90931332 -3.47043472 4.0916909 -6 1 C-4.02 0.67 -2.04 0.34 0 0 Z " fill="#299A80" transform="translate(114,257)"/>
<path d="M0 0 C0.33 1.32 0.66 2.64 1 4 C0.34 4 -0.32 4 -1 4 C-0.67 4.99 -0.34 5.98 0 7 C-0.33 7.66 -0.66 8.32 -1 9 C-2.32 8.67 -3.64 8.34 -5 8 C-3.35 5.36 -1.7 2.72 0 0 Z " fill="#249A7D" transform="translate(120,54)"/>
<path d="M0 0 C0.66 0 1.32 0 2 0 C1.67 0.99 1.34 1.98 1 3 C0.34 3 -0.32 3 -1 3 C-1.33 4.65 -1.66 6.3 -2 8 C-3.32 8.33 -4.64 8.66 -6 9 C-4.4722133 5.56247993 -2.49818944 2.81046312 0 0 Z " fill="#27967C" transform="translate(129,43)"/>
<path d="M0 0 C2.475 0.495 2.475 0.495 5 1 C5 1.66 5 2.32 5 3 C5.66 3.33 6.32 3.66 7 4 C7.625 6.0625 7.625 6.0625 8 8 C6.85073734 7.04578192 5.70569459 6.08647955 4.5625 5.125 C3.92441406 4.59132813 3.28632813 4.05765625 2.62890625 3.5078125 C1 2 1 2 0 0 Z " fill="#2A9B7F" transform="translate(182,458)"/>
<path d="M0 0 C0.66 0.33 1.32 0.66 2 1 C1.01 2.485 1.01 2.485 0 4 C-0.99 4 -1.98 4 -3 4 C-3 4.66 -3 5.32 -3 6 C-4.65 6 -6.3 6 -8 6 C-5.38485683 3.87961365 -2.80362384 1.86908256 0 0 Z " fill="#24957B" transform="translate(196,341)"/>
<path d="M0 0 C0.99 0 1.98 0 3 0 C2.67 1.98 2.34 3.96 2 6 C0.68 5.34 -0.64 4.68 -2 4 C-2 2 -2 2 0 0 Z " fill="#1C9B7B" transform="translate(103,250)"/>
<path d="M0 0 C4.10801767 1.18676066 5.89448334 1.89448334 9 5 C4.545 4.01 4.545 4.01 0 3 C0 2.01 0 1.02 0 0 Z " fill="#28947D" transform="translate(400,163)"/>
<path d="M0 0 C0.99 0.66 1.98 1.32 3 2 C2.67 3.32 2.34 4.64 2 6 C-0.475 5.01 -0.475 5.01 -3 4 C-3 3.34 -3 2.68 -3 2 C-2.01 1.34 -1.02 0.68 0 0 Z " fill="#0BA876" transform="translate(69,136)"/>
<path d="M0 0 C-1.24546405 3.73639216 -2.63404953 4.18756513 -6 6 C-6.66 5.34 -7.32 4.68 -8 4 C-2.25 0 -2.25 0 0 0 Z " fill="#1D8F76" transform="translate(186,112)"/>
<path d="M0 0 C3.2542015 2.83430453 4.5206753 4.68607774 5 9 C4.34 9 3.68 9 3 9 C0.56839395 5.63316085 0 4.26649636 0 0 Z " fill="#269A7C" transform="translate(450,103)"/>
<path d="M0 0 C0.99 0.33 1.98 0.66 3 1 C1.71186658 1.83878455 0.41936744 2.67086783 -0.875 3.5 C-1.59429687 3.9640625 -2.31359375 4.428125 -3.0546875 4.90625 C-5 6 -5 6 -7 6 C-6.67 5.01 -6.34 4.02 -6 3 C-4.02 2.67 -2.04 2.34 0 2 C0 1.34 0 0.68 0 0 Z " fill="#309A7F" transform="translate(280,94)"/>
<path d="M0 0 C1.31611677 0.95336021 2.62778961 1.91285774 3.9375 2.875 C4.66839844 3.40867188 5.39929688 3.94234375 6.15234375 4.4921875 C8 6 8 6 9 8 C6.03 7.505 6.03 7.505 3 7 C2.67 6.01 2.34 5.02 2 4 C1.34 3.67 0.68 3.34 0 3 C0 2.01 0 1.02 0 0 Z " fill="#23947B" transform="translate(301,29)"/>
<path d="M0 0 C2.76276177 0.52268466 5.3260876 1.10869587 8 2 C8 2.99 8 3.98 8 5 C4.62496331 3.8141763 2.35277269 2.72426311 0 0 Z " fill="#2C9A81" transform="translate(204,477)"/>
<path d="M0 0 C2.875 0.6875 2.875 0.6875 6 2 C7.375 4.625 7.375 4.625 8 7 C4.2047869 5.50902342 2.38957269 3.24299151 0 0 Z " fill="#2D9A7E" transform="translate(71,427)"/>
<path d="M0 0 C2.64 0.99 5.28 1.98 8 3 C7.67 3.66 7.34 4.32 7 5 C2.25 3.125 2.25 3.125 0 2 C-0.33 2.66 -0.66 3.32 -1 4 C-0.67 2.68 -0.34 1.36 0 0 Z " fill="#25A083" transform="translate(64,318)"/>
<path d="M0 0 C1.65 0.33 3.3 0.66 5 1 C-0.14285714 5.42857143 -0.14285714 5.42857143 -4 6 C-3.67 5.34 -3.34 4.68 -3 4 C-2.34 4 -1.68 4 -1 4 C-0.67 2.68 -0.34 1.36 0 0 Z " fill="#20987A" transform="translate(293,310)"/>
<path d="M0 0 C-0.33 1.32 -0.66 2.64 -1 4 C-3.64 4.33 -6.28 4.66 -9 5 C-6.45523312 2.20075644 -3.92372883 0 0 0 Z " fill="#299A7B" transform="translate(275,297)"/>
<path d="M0 0 C2.96404505 2.80804268 5.44499019 5.18315774 7 9 C5.68 8.34 4.36 7.68 3 7 C3 6.01 3 5.02 3 4 C2.34 4 1.68 4 1 4 C0.67 2.68 0.34 1.36 0 0 Z " fill="#2A997A" transform="translate(466,211)"/>
<path d="M0 0 C0.99 0.33 1.98 0.66 3 1 C0.525 4.465 0.525 4.465 -2 8 C-2.33 6.68 -2.66 5.36 -3 4 C-2.34 4 -1.68 4 -1 4 C-0.67 2.68 -0.34 1.36 0 0 Z " fill="#249A7E" transform="translate(54,156)"/>
<path d="M0 0 C0 0.66 0 1.32 0 2 C0.66 2.33 1.32 2.66 2 3 C1.67 3.66 1.34 4.32 1 5 C-1.86724686 4.42655063 -2.8614515 4.1385485 -5 2 C-2 0 -2 0 0 0 Z " fill="#189B7C" transform="translate(236,83)"/>
<path d="M0 0 C0.33 0.99 0.66 1.98 1 3 C-0.75 4.5625 -0.75 4.5625 -3 6 C-4.32 5.67 -5.64 5.34 -7 5 C-4.69 3.35 -2.38 1.7 0 0 Z " fill="#20987D" transform="translate(280,56)"/>
<path d="M0 0 C0.66 0 1.32 0 2 0 C0.68775452 3.93673644 -0.91910327 6.22719294 -4 9 C-3.34 7.02 -2.68 5.04 -2 3 C-1.34 3 -0.68 3 0 3 C0 2.01 0 1.02 0 0 Z " fill="#299778" transform="translate(381,437)"/>
<path d="M0 0 C0.99 0.33 1.98 0.66 3 1 C2.01 1.33 1.02 1.66 0 2 C0 2.66 0 3.32 0 4 C-2.5 5.625 -2.5 5.625 -5 7 C-5 5.68 -5 4.36 -5 3 C-3.68 3 -2.36 3 -1 3 C-0.67 2.01 -0.34 1.02 0 0 Z " fill="#2C987B" transform="translate(445,386)"/>
<path d="M0 0 C5.75 1.625 5.75 1.625 8 5 C4.62537285 4.45276317 2.91765 3.9451 0 2 C0 1.34 0 0.68 0 0 Z " fill="#27997D" transform="translate(164,338)"/>
<path d="M0 0 C2.875 0.25 2.875 0.25 6 1 C7.375 3.0625 7.375 3.0625 8 5 C4.62496331 3.8141763 2.35277269 2.72426311 0 0 Z " fill="#2B9E81" transform="translate(211,317)"/>
<path d="M0 0 C0.66 0.33 1.32 0.66 2 1 C-1.32307692 4.93846154 -1.32307692 4.93846154 -4.75 5.25 C-5.4925 5.1675 -6.235 5.085 -7 5 C-4.702779 3.25728062 -2.40133271 1.60088848 0 0 Z " fill="#27967A" transform="translate(264,302)"/>
<path d="M0 0 C3.73487777 0.4979837 5.81237635 0.87491756 9 3 C9 3.66 9 4.32 9 5 C5.54074837 3.7508258 2.85306797 2.32472205 0 0 Z " fill="#329B7E" transform="translate(125,268)"/>
<path d="M0 0 C1.9375 1 1.9375 1 4 3 C4.66549451 5.69924572 4.81680763 8.20631637 5 11 C2.77174356 8.77174356 2.30760631 7.34238372 1.375 4.375 C1.11460937 3.55773437 0.85421875 2.74046875 0.5859375 1.8984375 C0.39257812 1.27195313 0.19921875 0.64546875 0 0 Z " fill="#30997F" transform="translate(451,250)"/>
<path d="M0 0 C3.12290635 0.48578543 5.99580359 0.9986012 9 2 C9 2.99 9 3.98 9 5 C5.54074837 3.7508258 2.85306797 2.32472205 0 0 Z " fill="#2EA58A" transform="translate(348,247)"/>
<path d="M0 0 C0.99 0.33 1.98 0.66 3 1 C-0.465 3.97 -0.465 3.97 -4 7 C-4 5.68 -4 4.36 -4 3 C-2.68 2.67 -1.36 2.34 0 2 C0 1.34 0 0.68 0 0 Z " fill="#27997D" transform="translate(63,146)"/>
<path d="M0 0 C0.99 0 1.98 0 3 0 C4.75 1.75 4.75 1.75 6 4 C5.67 5.32 5.34 6.64 5 8 C2.525 4.04 2.525 4.04 0 0 Z " fill="#2B9F81" transform="translate(418,116)"/>
<path d="M0 0 C2.31 0.66 4.62 1.32 7 2 C6.34 3.32 5.68 4.64 5 6 C3.35 4.02 1.7 2.04 0 0 Z " fill="#269C80" transform="translate(401,96)"/>
<path d="M0 0 C1.65 1.65 3.3 3.3 5 5 C3.02 5.99 3.02 5.99 1 7 C0 2.25 0 2.25 0 0 Z " fill="#279A7E" transform="translate(83,391)"/>
<path d="M0 0 C1.32 0.66 2.64 1.32 4 2 C2.35 3.32 0.7 4.64 -1 6 C-1 5.34 -1 4.68 -1 4 C-1.66 3.67 -2.32 3.34 -3 3 C-2.01 2.01 -1.02 1.02 0 0 Z " fill="#23997C" transform="translate(452,378)"/>
<path d="M0 0 C0.66 0 1.32 0 2 0 C1.67 3.3 1.34 6.6 1 10 C0.67 10 0.34 10 0 10 C-1.125 2.25 -1.125 2.25 0 0 Z " fill="#31967F" transform="translate(491,304)"/>
<path d="M0 0 C2.125 0.9375 2.125 0.9375 4 2 C0.25 5 0.25 5 -2 5 C-2 3.68 -2 2.36 -2 1 C-1.34 0.67 -0.68 0.34 0 0 Z " fill="#1C997A" transform="translate(198,282)"/>
<path d="M0 0 C3.37503669 1.1858237 5.64722731 2.27573689 8 5 C5.36 4.67 2.72 4.34 0 4 C0 2.68 0 1.36 0 0 Z " fill="#24997C" transform="translate(156,258)"/>
<path d="M0 0 C0.33 0.99 0.66 1.98 1 3 C-4.75 2.25 -4.75 2.25 -7 0 C-2.25 -1.125 -2.25 -1.125 0 0 Z " fill="#219C80" transform="translate(366,253)"/>
<path d="M0 0 C1.98 0 3.96 0 6 0 C6.33 1.98 6.66 3.96 7 6 C5.83054208 5.19152271 4.66449539 4.37810888 3.5 3.5625 C2.8503125 3.11003906 2.200625 2.65757812 1.53125 2.19140625 C1.0259375 1.79824219 0.520625 1.40507812 0 1 C0 0.67 0 0.34 0 0 Z " fill="#269B7E" transform="translate(421,214)"/>
<path d="M0 0 C2.475 0.495 2.475 0.495 5 1 C3.35 2.65 1.7 4.3 0 6 C0 4.02 0 2.04 0 0 Z " fill="#219A7C" transform="translate(66,140)"/>
<path d="M0 0 C2.97 0.99 5.94 1.98 9 3 C9 3.33 9 3.66 9 4 C2.25 3.125 2.25 3.125 0 2 C0 1.34 0 0.68 0 0 Z " fill="#2A997C" transform="translate(386,49)"/>
</svg>
